<svg width="1350" height="139" viewBox="0 0 1350 139" fill="none" xmlns="http://www.w3.org/2000/svg">
<rect width="1349" height="139" transform="translate(1)" fill="white"/>
<path d="M500.54 117.64L498.38 119.32V130.76H503.26L506.52 126.34L506.04 132H493.5L495.58 130.4V119.26L493.5 117.64H500.54ZM512.934 132.2C509.834 132.2 508.234 129.86 508.234 127.4C508.234 124.6 510.134 122.22 513.054 122.22C514.714 122.22 517.014 123.04 517.214 125.82H517.234V126V126.22V126.82H510.494C510.574 128.84 511.834 130.18 513.814 130.18C515.214 130.18 516.374 129.58 517.154 128.32C517.154 130.58 515.034 132.2 512.934 132.2ZM512.754 123.16C511.674 123.16 510.514 124.12 510.494 125.82H514.674C514.674 124.24 514.014 123.16 512.754 123.16ZM546.5 117.58L544.38 119.4L539.88 131.58L539.34 133.04L535.04 121.88L532.36 129.4L531.6 131.58L531.04 133.04L525.52 119.18L523.68 117.58H530.06L528.48 118.94L531.72 127.68L534.34 120.08L533.88 118.9L532.36 117.58H538.94L537 119.16L540.06 127.78L543.2 118.92L541.66 117.58H546.5ZM552.843 125.18H552.863C552.783 123.82 551.903 123.08 550.903 123.08C550.303 123.08 549.363 123.2 549.083 123.6C549.943 123.94 550.163 124.44 550.163 125.12C550.163 125.9 549.503 126.52 548.783 126.52C547.903 126.52 547.423 125.82 547.423 124.9C547.423 123.72 549.183 122.12 551.243 122.12H551.563C553.303 122.12 555.143 122.92 555.143 125.6C555.143 126.42 555.123 129.5 555.123 130.42L556.643 132H553.363L552.863 130.46C552.243 131.54 550.863 132.28 549.543 132.28C547.683 132.28 547.103 130.9 547.103 130C547.103 128.6 548.283 127.78 549.523 127.48C550.963 127.14 552.863 126.92 552.843 125.18ZM550.503 130.78C551.223 130.78 552.363 130.34 552.803 129.28L552.843 126.86C552.363 127.48 551.623 127.86 550.963 128.12C549.883 128.6 549.483 129.06 549.483 129.82C549.483 130.42 549.983 130.78 550.503 130.78ZM557.888 125.58C557.888 123.54 559.828 122.22 562.388 122.22H562.528C562.068 121.4 561.928 120.3 561.928 119.76C561.928 119.22 562.068 118.76 562.348 118.44C562.608 118.08 563.048 117.84 563.548 117.84C564.388 117.84 565.048 118.5 565.048 119.34C565.048 120.18 564.388 120.84 563.548 120.84C563.248 120.84 562.968 120.76 562.748 120.62C562.768 120.96 562.848 121.3 562.968 121.64C563.048 121.88 563.148 122.1 563.268 122.28C565.288 122.56 566.508 123.8 566.508 125.58C566.508 127.52 564.948 128.8 562.628 128.94L561.488 129.64C562.988 130.22 564.508 130.8 565.448 131.26C566.588 131.84 566.908 132.54 566.908 133.38C566.908 135.08 564.748 136.68 561.768 136.68C559.348 136.68 557.228 135.84 557.228 134.22C557.228 132.68 559.388 131.96 560.908 131.72C560.008 131.36 559.168 131.04 558.908 130.92V130.28L560.208 129.68L561.428 128.9C559.308 128.68 557.888 127.44 557.888 125.58ZM559.428 133.9C559.388 134.98 560.668 135.84 562.108 135.84C563.648 135.84 564.768 135.18 564.768 134.28C564.768 133.44 563.848 132.96 563.128 132.62L561.908 132.1C560.568 132.26 559.448 133.24 559.428 133.9ZM560.508 125.58C560.508 127.14 561.008 128.08 562.208 128.08C563.408 128.08 563.908 127.14 563.908 125.58C563.908 124 563.408 123.06 562.208 123.06C561.008 123.06 560.508 124 560.508 125.58ZM578.294 127.2C578.294 130.3 576.274 132.14 573.254 132.2C570.234 132.16 568.214 130.32 568.214 127.24C568.214 124.24 570.274 122.22 573.254 122.22C576.394 122.22 578.274 124.38 578.294 127.2ZM573.254 123.16C571.474 123.14 570.994 125.08 570.994 127.22C570.994 129.36 571.474 131.24 573.254 131.24C575.014 131.24 575.514 129.36 575.514 127.22C575.514 125.1 575.014 123.18 573.254 123.16ZM585.794 132L587.234 130.6L587.254 126.3C587.254 125.24 587.194 124.78 586.894 124.32C586.614 123.88 586.114 123.66 585.394 123.66C583.934 123.66 583.514 124.78 583.414 125.34V130.6L584.974 132H579.574L581.014 130.6V125.04L579.574 124.16L581.014 123.2V123.18L582.814 121.98L583.274 123.94C583.914 122.86 584.854 122.22 586.414 122.22C588.314 122.22 589.654 123.42 589.654 125.7L589.634 130.6L591.194 132H585.794ZM597.875 132L599.955 130.4V119.26L597.875 117.64H601.515C601.515 117.64 603.835 117.62 605.955 117.62C608.555 117.62 610.095 119.1 610.095 120.98C610.095 122.5 609.415 123.76 606.835 124.56C609.115 124.74 610.895 125.88 610.895 128.28C610.895 130.2 609.375 132 606.135 132H597.875ZM603.795 125.16H602.755V130.98H604.635C606.335 130.94 607.915 130.1 607.915 128.18C607.915 126.24 606.415 125.16 603.795 125.16ZM602.995 118.66H602.755V124.14C604.915 124.14 607.115 124.02 607.115 121.48C607.115 120.38 606.695 119.42 605.915 119.04C605.175 118.64 604.235 118.66 602.995 118.66ZM622.767 127.2C622.767 130.3 620.747 132.14 617.727 132.2C614.707 132.16 612.687 130.32 612.687 127.24C612.687 124.24 614.747 122.22 617.727 122.22C620.867 122.22 622.747 124.38 622.767 127.2ZM617.727 123.16C615.947 123.14 615.467 125.08 615.467 127.22C615.467 129.36 615.947 131.24 617.727 131.24C619.487 131.24 619.987 129.36 619.987 127.22C619.987 125.1 619.487 123.18 617.727 123.16ZM634.446 127.2C634.446 130.3 632.426 132.14 629.406 132.2C626.386 132.16 624.366 130.32 624.366 127.24C624.366 124.24 626.426 122.22 629.406 122.22C632.546 122.22 634.426 124.38 634.446 127.2ZM629.406 123.16C627.626 123.14 627.146 125.08 627.146 127.22C627.146 129.36 627.626 131.24 629.406 131.24C631.166 131.24 631.666 129.36 631.666 127.22C631.666 125.1 631.166 123.18 629.406 123.16ZM641.066 130.62C641.846 130.62 642.666 130.2 643.346 129.32C643.266 131.3 641.666 132.2 640.126 132.2C637.886 132.2 636.806 130.8 636.806 128.52L636.826 123.7H635.426V122.42H636.426L638.406 118.6H639.186V122.42H642.546V123.7H639.226L639.206 128.18C639.206 129.5 639.326 130.62 641.066 130.62ZM648.619 132.2C645.739 132.2 643.839 130.18 643.839 127.52C643.839 124.32 646.019 122.22 649.059 122.22C650.939 122.22 652.439 123.4 652.439 125.02C652.439 125.82 651.919 126.56 650.999 126.56C650.259 126.56 649.579 126.1 649.579 125.1C649.579 124.3 650.039 123.16 648.839 123.16C647.339 123.16 646.099 124.48 646.099 126.4C646.099 128.84 647.499 130.18 649.439 130.18C650.679 130.18 652.079 129.62 652.739 128.3C652.739 130.56 650.619 132.2 648.619 132.2ZM659.972 125.18H659.992C659.912 123.82 659.032 123.08 658.032 123.08C657.432 123.08 656.492 123.2 656.212 123.6C657.072 123.94 657.292 124.44 657.292 125.12C657.292 125.9 656.632 126.52 655.912 126.52C655.032 126.52 654.552 125.82 654.552 124.9C654.552 123.72 656.312 122.12 658.372 122.12H658.692C660.432 122.12 662.272 122.92 662.272 125.6C662.272 126.42 662.252 129.5 662.252 130.42L663.772 132H660.492L659.992 130.46C659.372 131.54 657.992 132.28 656.672 132.28C654.812 132.28 654.232 130.9 654.232 130C654.232 128.6 655.412 127.78 656.652 127.48C658.092 127.14 659.992 126.92 659.972 125.18ZM657.632 130.78C658.352 130.78 659.492 130.34 659.932 129.28L659.972 126.86C659.492 127.48 658.752 127.86 658.092 128.12C657.012 128.6 656.612 129.06 656.612 129.82C656.612 130.42 657.112 130.78 657.632 130.78ZM670.257 132L671.697 130.6L671.717 126.42C671.697 124.74 671.337 123.7 670.017 123.7C668.717 123.7 668.377 124.76 668.277 125.3V130.6L669.837 132H664.437L665.877 130.6V125.04L664.437 124.16L665.877 123.2V123.18L667.677 121.98L668.117 123.9C668.717 122.84 669.617 122.22 671.077 122.22C672.397 122.22 673.417 122.88 673.877 124.16C674.477 122.94 675.377 122.22 676.957 122.22C678.737 122.22 679.997 123.42 679.997 125.7L679.977 130.6L681.537 132H676.137L677.577 130.6L677.597 126.42C677.577 124.74 677.217 123.7 675.897 123.7C674.177 123.7 674.117 125.62 674.117 125.62V125.7L674.097 130.6L675.657 132H670.257ZM688.951 122.26C691.091 122.26 693.311 123.78 693.311 127.1C693.311 129.78 691.051 132.26 687.771 132.26C687.211 132.26 686.571 132.16 685.991 131.94V135.08L687.551 136.5H682.151L683.591 135.08V125.04L682.151 124.16L683.591 123.2V123.18L685.391 121.98L685.871 123.76C686.551 122.72 687.831 122.26 688.951 122.26ZM687.611 124.04C687.211 124.04 686.551 124.08 685.991 124.52V129.02C686.131 130.56 686.911 131.26 688.191 131.26C689.811 131.26 690.831 129.84 690.831 128.02C690.831 125.32 689.391 124.04 687.611 124.04Z" fill="black"/>
<path d="M1185.56 17L1187.64 15.4V4.26L1185.56 2.64H1189.2C1189.2 2.64 1191.42 2.62 1193.24 2.62C1196.2 2.62 1197.98 4.5 1197.98 6.58C1197.98 8.98 1196.1 11.14 1192.82 11.14C1191.46 11.14 1190.76 11.1 1190.44 11.06V15.32L1192.62 17H1185.56ZM1190.88 3.66H1190.44V10.14C1192.68 10.14 1195 10.08 1195 6.88C1195 5.58 1194.58 4.5 1193.8 4.04C1193.06 3.64 1192.12 3.66 1190.88 3.66ZM1198.61 17L1200.05 15.6V10.04L1198.61 9.16L1200.05 8.2V8.18L1201.85 6.98L1202.39 9.52C1202.85 8.2 1203.79 7.22 1204.95 7.22C1205.63 7.22 1206.45 7.72 1206.45 8.78C1206.45 9.72 1205.77 10.4 1205.05 10.4C1204.29 10.4 1203.63 9.88 1203.55 8.98C1202.81 9.74 1202.53 10.6 1202.45 11.8V15.6L1204 17H1198.61ZM1217.33 12.2C1217.33 15.3 1215.31 17.14 1212.29 17.2C1209.27 17.16 1207.25 15.32 1207.25 12.24C1207.25 9.24 1209.31 7.22 1212.29 7.22C1215.43 7.22 1217.31 9.38 1217.33 12.2ZM1212.29 8.16C1210.51 8.14 1210.03 10.08 1210.03 12.22C1210.03 14.36 1210.51 16.24 1212.29 16.24C1214.05 16.24 1214.55 14.36 1214.55 12.22C1214.55 10.1 1214.05 8.18 1212.29 8.16ZM1223.31 17.26C1221.17 17.26 1218.95 15.74 1218.95 12.42C1218.95 9.74 1221.21 7.26 1224.49 7.26C1225.05 7.26 1225.67 7.36 1226.27 7.6V5.26L1224.83 4.56L1227.95 2.48V2.5L1228.67 2V14.84L1230.11 15.84L1226.87 17.46L1226.39 15.74C1225.71 16.8 1224.43 17.26 1223.31 17.26ZM1224.65 15.48C1225.05 15.48 1225.71 15.44 1226.27 15.02V10.5C1226.13 8.98 1225.35 8.26 1224.07 8.26C1222.45 8.26 1221.43 9.68 1221.43 11.5C1221.43 14.2 1222.87 15.48 1224.65 15.48ZM1240.61 6.82V14.84L1242.05 15.84L1238.81 17.46L1238.35 15.54C1237.73 16.6 1236.85 17.22 1235.31 17.22C1233.41 17.22 1232.11 16.02 1232.11 13.74V9.88L1230.69 9.16L1233.31 7.56V7.58L1234.53 6.82L1234.51 13.02C1234.53 14.7 1234.89 15.74 1236.37 15.74C1237.71 15.74 1238.09 14.8 1238.21 14.24V9.9L1236.77 9.16L1239.39 7.56V7.58L1240.61 6.82ZM1248.02 17.2C1245.14 17.2 1243.24 15.18 1243.24 12.52C1243.24 9.32 1245.42 7.22 1248.46 7.22C1250.34 7.22 1251.84 8.4 1251.84 10.02C1251.84 10.82 1251.32 11.56 1250.4 11.56C1249.66 11.56 1248.98 11.1 1248.98 10.1C1248.98 9.3 1249.44 8.16 1248.24 8.16C1246.74 8.16 1245.5 9.48 1245.5 11.4C1245.5 13.84 1246.9 15.18 1248.84 15.18C1250.08 15.18 1251.48 14.62 1252.14 13.3C1252.14 15.56 1250.02 17.2 1248.02 17.2ZM1258.55 15.62C1259.33 15.62 1260.15 15.2 1260.83 14.32C1260.75 16.3 1259.15 17.2 1257.61 17.2C1255.37 17.2 1254.29 15.8 1254.29 13.52L1254.31 8.7H1252.91V7.42H1253.91L1255.89 3.6H1256.67V7.42H1260.03V8.7H1256.71L1256.69 13.18C1256.69 14.5 1256.81 15.62 1258.55 15.62ZM1267.02 17L1269.1 15.4V4.26L1267.02 2.64H1273.84C1277.82 2.64 1281.64 4.76 1281.64 9.86C1281.64 13.84 1279.04 17.04 1273.68 17.04C1270.26 17.04 1270.2 17 1270.2 17H1267.02ZM1273.26 3.76H1271.9V15.9H1273.66C1276.94 15.9 1278.44 13.6 1278.44 10.06C1278.44 6.5 1276.84 3.76 1273.26 3.76ZM1288.14 17.2C1285.04 17.2 1283.44 14.86 1283.44 12.4C1283.44 9.6 1285.34 7.22 1288.26 7.22C1289.92 7.22 1292.22 8.04 1292.42 10.82H1292.44V11V11.22V11.82H1285.7C1285.78 13.84 1287.04 15.18 1289.02 15.18C1290.42 15.18 1291.58 14.58 1292.36 13.32C1292.36 15.58 1290.24 17.2 1288.14 17.2ZM1287.96 8.16C1286.88 8.16 1285.72 9.12 1285.7 10.82H1289.88C1289.88 9.24 1289.22 8.16 1287.96 8.16ZM1297.39 7.12C1298.07 7.12 1298.83 7.38 1299.35 7.68L1300.91 6.82L1300.93 10.92C1300.49 10.12 1299.99 9.42 1299.25 8.84C1298.79 8.44 1298.07 8.2 1297.53 8.2C1296.57 8.2 1295.87 8.62 1295.87 9.4C1295.87 10.02 1296.65 10.4 1297.85 10.7C1299.93 11.22 1301.27 11.84 1301.27 14.12C1301.27 15.46 1300.21 17.2 1297.93 17.2C1296.89 17.2 1296.15 16.94 1295.59 16.62L1294.09 17.36L1294.07 12.9C1294.71 13.88 1295.25 14.9 1296.15 15.6C1296.71 16.02 1297.25 16.1 1297.97 16.1C1298.63 16.1 1299.47 15.7 1299.47 14.88C1299.47 13.74 1298.09 13.5 1297.15 13.3C1295.27 12.9 1294.11 12.1 1294.11 10.14C1294.11 8.18 1295.63 7.12 1297.39 7.12ZM1302.75 17L1304.19 15.6V9.9L1302.75 9.16L1304.19 8.28L1305.37 7.56L1306.59 6.82V15.6L1308.13 17H1302.75ZM1303.99 4.2C1303.99 3.38 1304.67 2.68 1305.51 2.68C1306.33 2.68 1307.03 3.38 1307.03 4.2C1307.03 5.04 1306.33 5.72 1305.51 5.72C1304.67 5.72 1303.99 5.04 1303.99 4.2ZM1309.42 10.58C1309.42 8.54 1311.36 7.22 1313.92 7.22H1314.06C1313.6 6.4 1313.46 5.3 1313.46 4.76C1313.46 4.22 1313.6 3.76 1313.88 3.44C1314.14 3.08 1314.58 2.84 1315.08 2.84C1315.92 2.84 1316.58 3.5 1316.58 4.34C1316.58 5.18 1315.92 5.84 1315.08 5.84C1314.78 5.84 1314.5 5.76 1314.28 5.62C1314.3 5.96 1314.38 6.3 1314.5 6.64C1314.58 6.88 1314.68 7.1 1314.8 7.28C1316.82 7.56 1318.04 8.8 1318.04 10.58C1318.04 12.52 1316.48 13.8 1314.16 13.94L1313.02 14.64C1314.52 15.22 1316.04 15.8 1316.98 16.26C1318.12 16.84 1318.44 17.54 1318.44 18.38C1318.44 20.08 1316.28 21.68 1313.3 21.68C1310.88 21.68 1308.76 20.84 1308.76 19.22C1308.76 17.68 1310.92 16.96 1312.44 16.72C1311.54 16.36 1310.7 16.04 1310.44 15.92V15.28L1311.74 14.68L1312.96 13.9C1310.84 13.68 1309.42 12.44 1309.42 10.58ZM1310.96 18.9C1310.92 19.98 1312.2 20.84 1313.64 20.84C1315.18 20.84 1316.3 20.18 1316.3 19.28C1316.3 18.44 1315.38 17.96 1314.66 17.62L1313.44 17.1C1312.1 17.26 1310.98 18.24 1310.96 18.9ZM1312.04 10.58C1312.04 12.14 1312.54 13.08 1313.74 13.08C1314.94 13.08 1315.44 12.14 1315.44 10.58C1315.44 9 1314.94 8.06 1313.74 8.06C1312.54 8.06 1312.04 9 1312.04 10.58ZM1325.65 17L1327.09 15.6L1327.11 11.3C1327.11 10.24 1327.05 9.78 1326.75 9.32C1326.47 8.88 1325.97 8.66 1325.25 8.66C1323.79 8.66 1323.37 9.78 1323.27 10.34V15.6L1324.83 17H1319.43L1320.87 15.6V10.04L1319.43 9.16L1320.87 8.2V8.18L1322.67 6.98L1323.13 8.94C1323.77 7.86 1324.71 7.22 1326.27 7.22C1328.17 7.22 1329.51 8.42 1329.51 10.7L1329.49 15.6L1331.05 17H1325.65ZM1336.73 17.2C1333.63 17.2 1332.03 14.86 1332.03 12.4C1332.03 9.6 1333.93 7.22 1336.85 7.22C1338.51 7.22 1340.81 8.04 1341.01 10.82H1341.03V11V11.22V11.82H1334.29C1334.37 13.84 1335.63 15.18 1337.61 15.18C1339.01 15.18 1340.17 14.58 1340.95 13.32C1340.95 15.58 1338.83 17.2 1336.73 17.2ZM1336.55 8.16C1335.47 8.16 1334.31 9.12 1334.29 10.82H1338.47C1338.47 9.24 1337.81 8.16 1336.55 8.16ZM1342.1 17L1343.54 15.6V10.04L1342.1 9.16L1343.54 8.2V8.18L1345.34 6.98L1345.88 9.52C1346.34 8.2 1347.28 7.22 1348.44 7.22C1349.12 7.22 1349.94 7.72 1349.94 8.78C1349.94 9.72 1349.26 10.4 1348.54 10.4C1347.78 10.4 1347.12 9.88 1347.04 8.98C1346.3 9.74 1346.02 10.6 1345.94 11.8V15.6L1347.5 17H1342.1Z" fill="black"/>
<path d="M692.734 11.1V17.6L690.634 15.96C689.534 17 688.274 17.36 686.954 17.36C682.814 17.36 680.154 14.3 680.154 10.26C680.154 5.22 683.074 2.32 687.454 2.32C688.454 2.32 689.734 2.78 690.734 3.7L692.734 2.14V8.64C690.974 5.92 689.934 3.7 687.354 3.7C684.954 3.7 683.294 6.2 683.294 9.64C683.294 13.08 684.534 16.04 687.394 16.04C690.214 16.04 691.694 12.6 692.734 11.1ZM705.015 12.2C705.015 15.3 702.995 17.14 699.975 17.2C696.955 17.16 694.935 15.32 694.935 12.24C694.935 9.24 696.995 7.22 699.975 7.22C703.115 7.22 704.995 9.38 705.015 12.2ZM699.975 8.16C698.195 8.14 697.715 10.08 697.715 12.22C697.715 14.36 698.195 16.24 699.975 16.24C701.735 16.24 702.235 14.36 702.235 12.22C702.235 10.1 701.735 8.18 699.975 8.16ZM712.514 17L713.954 15.6L713.974 11.3C713.974 10.24 713.914 9.78 713.614 9.32C713.334 8.88 712.834 8.66 712.114 8.66C710.654 8.66 710.234 9.78 710.134 10.34V15.6L711.694 17H706.294L707.734 15.6V10.04L706.294 9.16L707.734 8.2V8.18L709.534 6.98L709.994 8.94C710.634 7.86 711.574 7.22 713.134 7.22C715.034 7.22 716.374 8.42 716.374 10.7L716.354 15.6L717.914 17H712.514ZM722.46 7.12C723.14 7.12 723.9 7.38 724.42 7.68L725.98 6.82L726 10.92C725.56 10.12 725.06 9.42 724.32 8.84C723.86 8.44 723.14 8.2 722.6 8.2C721.64 8.2 720.94 8.62 720.94 9.4C720.94 10.02 721.72 10.4 722.92 10.7C725 11.22 726.34 11.84 726.34 14.12C726.34 15.46 725.28 17.2 723 17.2C721.96 17.2 721.22 16.94 720.66 16.62L719.16 17.36L719.14 12.9C719.78 13.88 720.32 14.9 721.22 15.6C721.78 16.02 722.32 16.1 723.04 16.1C723.7 16.1 724.54 15.7 724.54 14.88C724.54 13.74 723.16 13.5 722.22 13.3C720.34 12.9 719.18 12.1 719.18 10.14C719.18 8.18 720.7 7.12 722.46 7.12ZM737.438 6.82V14.84L738.878 15.84L735.638 17.46L735.178 15.54C734.558 16.6 733.678 17.22 732.138 17.22C730.238 17.22 728.938 16.02 728.938 13.74V9.88L727.518 9.16L730.138 7.56V7.58L731.358 6.82L731.338 13.02C731.358 14.7 731.718 15.74 733.198 15.74C734.538 15.74 734.918 14.8 735.038 14.24V9.9L733.598 9.16L736.218 7.56V7.58L737.438 6.82ZM739.671 17L741.131 15.58V5.26L739.691 4.56L743.531 2L743.511 15.6L745.071 17H739.671ZM751.244 15.62C752.024 15.62 752.844 15.2 753.524 14.32C753.444 16.3 751.844 17.2 750.304 17.2C748.064 17.2 746.984 15.8 746.984 13.52L747.004 8.7H745.604V7.42H746.604L748.584 3.6H749.364V7.42H752.724V8.7H749.404L749.384 13.18C749.384 14.5 749.504 15.62 751.244 15.62ZM759.857 10.18H759.877C759.797 8.82 758.917 8.08 757.917 8.08C757.317 8.08 756.377 8.2 756.097 8.6C756.957 8.94 757.177 9.44 757.177 10.12C757.177 10.9 756.517 11.52 755.797 11.52C754.917 11.52 754.437 10.82 754.437 9.9C754.437 8.72 756.197 7.12 758.257 7.12H758.577C760.317 7.12 762.157 7.92 762.157 10.6C762.157 11.42 762.137 14.5 762.137 15.42L763.657 17H760.377L759.877 15.46C759.257 16.54 757.877 17.28 756.557 17.28C754.697 17.28 754.117 15.9 754.117 15C754.117 13.6 755.297 12.78 756.537 12.48C757.977 12.14 759.877 11.92 759.857 10.18ZM757.517 15.78C758.237 15.78 759.377 15.34 759.817 14.28L759.857 11.86C759.377 12.48 758.637 12.86 757.977 13.12C756.897 13.6 756.497 14.06 756.497 14.82C756.497 15.42 756.997 15.78 757.517 15.78ZM770.542 17L771.982 15.6L772.002 11.3C772.002 10.24 771.942 9.78 771.642 9.32C771.362 8.88 770.862 8.66 770.142 8.66C768.682 8.66 768.262 9.78 768.162 10.34V15.6L769.722 17H764.322L765.762 15.6V10.04L764.322 9.16L765.762 8.2V8.18L767.562 6.98L768.022 8.94C768.662 7.86 769.602 7.22 771.162 7.22C773.062 7.22 774.402 8.42 774.402 10.7L774.382 15.6L775.942 17H770.542ZM781.947 15.62C782.727 15.62 783.547 15.2 784.227 14.32C784.147 16.3 782.547 17.2 781.007 17.2C778.767 17.2 777.687 15.8 777.687 13.52L777.707 8.7H776.307V7.42H777.307L779.287 3.6H780.067V7.42H783.427V8.7H780.107L780.087 13.18C780.087 14.5 780.207 15.62 781.947 15.62ZM790.416 17L792.496 15.4V4.26L790.416 2.64H794.056C794.056 2.64 796.276 2.62 798.096 2.62C801.056 2.62 802.836 4.5 802.836 6.58C802.836 8.98 800.956 11.14 797.676 11.14C796.316 11.14 795.616 11.1 795.296 11.06V15.32L797.476 17H790.416ZM795.736 3.66H795.296V10.14C797.536 10.14 799.856 10.08 799.856 6.88C799.856 5.58 799.436 4.5 798.656 4.04C797.916 3.64 796.976 3.66 795.736 3.66ZM813.862 12.2C813.862 15.3 811.842 17.14 808.822 17.2C805.802 17.16 803.782 15.32 803.782 12.24C803.782 9.24 805.842 7.22 808.822 7.22C811.962 7.22 813.842 9.38 813.862 12.2ZM808.822 8.16C807.042 8.14 806.562 10.08 806.562 12.22C806.562 14.36 807.042 16.24 808.822 16.24C810.582 16.24 811.082 14.36 811.082 12.22C811.082 10.1 810.582 8.18 808.822 8.16ZM819.022 7.12C819.702 7.12 820.462 7.38 820.982 7.68L822.542 6.82L822.562 10.92C822.122 10.12 821.622 9.42 820.882 8.84C820.422 8.44 819.702 8.2 819.162 8.2C818.202 8.2 817.502 8.62 817.502 9.4C817.502 10.02 818.282 10.4 819.482 10.7C821.562 11.22 822.902 11.84 822.902 14.12C822.902 15.46 821.842 17.2 819.562 17.2C818.522 17.2 817.782 16.94 817.222 16.62L815.722 17.36L815.702 12.9C816.342 13.88 816.882 14.9 817.782 15.6C818.342 16.02 818.882 16.1 819.602 16.1C820.262 16.1 821.102 15.7 821.102 14.88C821.102 13.74 819.722 13.5 818.782 13.3C816.902 12.9 815.742 12.1 815.742 10.14C815.742 8.18 817.262 7.12 819.022 7.12ZM824.38 17L825.82 15.6V9.9L824.38 9.16L825.82 8.28L827 7.56L828.22 6.82V15.6L829.76 17H824.38ZM825.62 4.2C825.62 3.38 826.3 2.68 827.14 2.68C827.96 2.68 828.66 3.38 828.66 4.2C828.66 5.04 827.96 5.72 827.14 5.72C826.3 5.72 825.62 5.04 825.62 4.2ZM835.814 15.62C836.594 15.62 837.414 15.2 838.094 14.32C838.014 16.3 836.414 17.2 834.874 17.2C832.634 17.2 831.554 15.8 831.554 13.52L831.574 8.7H830.174V7.42H831.174L833.154 3.6H833.934V7.42H837.294V8.7H833.974L833.954 13.18C833.954 14.5 834.074 15.62 835.814 15.62ZM838.267 17L839.707 15.6V9.9L838.267 9.16L839.707 8.28L840.887 7.56L842.107 6.82V15.6L843.647 17H838.267ZM839.507 4.2C839.507 3.38 840.187 2.68 841.027 2.68C841.847 2.68 842.547 3.38 842.547 4.2C842.547 5.04 841.847 5.72 841.027 5.72C840.187 5.72 839.507 5.04 839.507 4.2ZM854.761 12.2C854.761 15.3 852.741 17.14 849.721 17.2C846.701 17.16 844.681 15.32 844.681 12.24C844.681 9.24 846.741 7.22 849.721 7.22C852.861 7.22 854.741 9.38 854.761 12.2ZM849.721 8.16C847.941 8.14 847.461 10.08 847.461 12.22C847.461 14.36 847.941 16.24 849.721 16.24C851.481 16.24 851.981 14.36 851.981 12.22C851.981 10.1 851.481 8.18 849.721 8.16ZM862.261 17L863.701 15.6L863.721 11.3C863.721 10.24 863.661 9.78 863.361 9.32C863.081 8.88 862.581 8.66 861.861 8.66C860.401 8.66 859.981 9.78 859.881 10.34V15.6L861.441 17H856.041L857.481 15.6V10.04L856.041 9.16L857.481 8.2V8.18L859.281 6.98L859.741 8.94C860.381 7.86 861.321 7.22 862.881 7.22C864.781 7.22 866.121 8.42 866.121 10.7L866.101 15.6L867.661 17H862.261Z" fill="black"/>
<path d="M22.5 134L24.58 132.4V121.26L22.5 119.64H26.14C26.14 119.64 28.46 119.62 30.58 119.62C33.18 119.62 34.72 121.1 34.72 122.98C34.72 124.5 34.04 125.76 31.46 126.56C33.74 126.74 35.52 127.88 35.52 130.28C35.52 132.2 34 134 30.76 134H22.5ZM28.42 127.16H27.38V132.98H29.26C30.96 132.94 32.54 132.1 32.54 130.18C32.54 128.24 31.04 127.16 28.42 127.16ZM27.62 120.66H27.38V126.14C29.54 126.14 31.74 126.02 31.74 123.48C31.74 122.38 31.32 121.42 30.54 121.04C29.8 120.64 28.86 120.66 27.62 120.66ZM46.6117 123.82V131.84L48.0517 132.84L44.8117 134.46L44.3517 132.54C43.7317 133.6 42.8517 134.22 41.3117 134.22C39.4117 134.22 38.1117 133.02 38.1117 130.74V126.88L36.6917 126.16L39.3117 124.56V124.58L40.5317 123.82L40.5117 130.02C40.5317 131.7 40.8917 132.74 42.3717 132.74C43.7117 132.74 44.0917 131.8 44.2117 131.24V126.9L42.7717 126.16L45.3917 124.56V124.58L46.6117 123.82ZM52.8053 124.12C53.4853 124.12 54.2453 124.38 54.7653 124.68L56.3253 123.82L56.3453 127.92C55.9053 127.12 55.4053 126.42 54.6653 125.84C54.2053 125.44 53.4853 125.2 52.9453 125.2C51.9853 125.2 51.2853 125.62 51.2853 126.4C51.2853 127.02 52.0653 127.4 53.2653 127.7C55.3453 128.22 56.6853 128.84 56.6853 131.12C56.6853 132.46 55.6253 134.2 53.3453 134.2C52.3053 134.2 51.5653 133.94 51.0053 133.62L49.5053 134.36L49.4853 129.9C50.1253 130.88 50.6653 131.9 51.5653 132.6C52.1253 133.02 52.6653 133.1 53.3853 133.1C54.0453 133.1 54.8853 132.7 54.8853 131.88C54.8853 130.74 53.5053 130.5 52.5653 130.3C50.6853 129.9 49.5253 129.1 49.5253 127.14C49.5253 125.18 51.0453 124.12 52.8053 124.12ZM58.1636 134L59.6036 132.6V126.9L58.1636 126.16L59.6036 125.28L60.7836 124.56L62.0036 123.82V132.6L63.5436 134H58.1636ZM59.4036 121.2C59.4036 120.38 60.0836 119.68 60.9236 119.68C61.7436 119.68 62.4436 120.38 62.4436 121.2C62.4436 122.04 61.7436 122.72 60.9236 122.72C60.0836 122.72 59.4036 122.04 59.4036 121.2ZM70.4773 134L71.9173 132.6L71.9373 128.3C71.9373 127.24 71.8773 126.78 71.5773 126.32C71.2973 125.88 70.7973 125.66 70.0773 125.66C68.6173 125.66 68.1973 126.78 68.0973 127.34V132.6L69.6573 134H64.2573L65.6973 132.6V127.04L64.2573 126.16L65.6973 125.2V125.18L67.4973 123.98L67.9573 125.94C68.5973 124.86 69.5373 124.22 71.0973 124.22C72.9973 124.22 74.3373 125.42 74.3373 127.7L74.3173 132.6L75.8773 134H70.4773ZM81.5625 134.2C78.4625 134.2 76.8625 131.86 76.8625 129.4C76.8625 126.6 78.7625 124.22 81.6825 124.22C83.3425 124.22 85.6425 125.04 85.8425 127.82H85.8625V128V128.22V128.82H79.1225C79.2025 130.84 80.4625 132.18 82.4425 132.18C83.8425 132.18 85.0025 131.58 85.7825 130.32C85.7825 132.58 83.6625 134.2 81.5625 134.2ZM81.3825 125.16C80.3025 125.16 79.1425 126.12 79.1225 127.82H83.3025C83.3025 126.24 82.6425 125.16 81.3825 125.16ZM90.8131 124.12C91.4931 124.12 92.2531 124.38 92.7731 124.68L94.3331 123.82L94.3531 127.92C93.9131 127.12 93.4131 126.42 92.6731 125.84C92.2131 125.44 91.4931 125.2 90.9531 125.2C89.9931 125.2 89.2931 125.62 89.2931 126.4C89.2931 127.02 90.0731 127.4 91.2731 127.7C93.3531 128.22 94.6931 128.84 94.6931 131.12C94.6931 132.46 93.6331 134.2 91.3531 134.2C90.3131 134.2 89.5731 133.94 89.0131 133.62L87.5131 134.36L87.4931 129.9C88.1331 130.88 88.6731 131.9 89.5731 132.6C90.1331 133.02 90.6731 133.1 91.3931 133.1C92.0531 133.1 92.8931 132.7 92.8931 131.88C92.8931 130.74 91.5131 130.5 90.5731 130.3C88.6931 129.9 87.5331 129.1 87.5331 127.14C87.5331 125.18 89.0531 124.12 90.8131 124.12ZM100.051 124.12C100.731 124.12 101.491 124.38 102.011 124.68L103.571 123.82L103.591 127.92C103.151 127.12 102.651 126.42 101.911 125.84C101.451 125.44 100.731 125.2 100.191 125.2C99.2314 125.2 98.5314 125.62 98.5314 126.4C98.5314 127.02 99.3114 127.4 100.511 127.7C102.591 128.22 103.931 128.84 103.931 131.12C103.931 132.46 102.871 134.2 100.591 134.2C99.5514 134.2 98.8114 133.94 98.2514 133.62L96.7514 134.36L96.7314 129.9C97.3714 130.88 97.9114 131.9 98.8114 132.6C99.3714 133.02 99.9114 133.1 100.631 133.1C101.291 133.1 102.131 132.7 102.131 131.88C102.131 130.74 100.751 130.5 99.8114 130.3C97.9314 129.9 96.7714 129.1 96.7714 127.14C96.7714 125.18 98.2914 124.12 100.051 124.12ZM117.526 119.34C118.466 119.34 119.586 119.78 120.366 120.3L121.946 119.18L121.906 126C120.186 122 119.446 120.42 117.086 120.42C115.886 120.42 114.846 121.4 114.846 122.56C114.846 124.26 116.246 124.62 118.806 125.72C120.366 126.5 122.126 127.58 122.126 130.14C122.126 132.34 120.426 134.12 117.466 134.12C116.046 134.12 114.946 133.7 114.146 133.12L112.566 134.22L112.626 127.44C114.006 130.92 115.346 133 117.266 133C118.646 133 119.706 132.34 119.706 130.8C119.706 128.94 117.246 128.22 115.786 127.58C114.906 127.16 112.526 125.94 112.526 123.44C112.526 120.56 114.826 119.34 117.526 119.34ZM129.299 134.2C126.419 134.2 124.519 132.18 124.519 129.52C124.519 126.32 126.699 124.22 129.739 124.22C131.619 124.22 133.119 125.4 133.119 127.02C133.119 127.82 132.599 128.56 131.679 128.56C130.939 128.56 130.259 128.1 130.259 127.1C130.259 126.3 130.719 125.16 129.519 125.16C128.019 125.16 126.779 126.48 126.779 128.4C126.779 130.84 128.179 132.18 130.119 132.18C131.359 132.18 132.759 131.62 133.419 130.3C133.419 132.56 131.299 134.2 129.299 134.2ZM140.132 125.66C138.712 125.66 138.272 126.74 138.152 127.3V132.6L139.712 134H134.312L135.772 132.58V122.26L134.332 121.56L138.172 119L138.152 125.7C138.792 124.76 139.712 124.22 141.152 124.22C143.052 124.22 144.392 125.42 144.392 127.7L144.372 132.6L145.932 134H140.532L141.972 132.6L141.992 128.3C141.992 127.24 141.932 126.78 141.632 126.32C141.352 125.88 140.852 125.66 140.132 125.66ZM157.001 129.2C157.001 132.3 154.981 134.14 151.961 134.2C148.941 134.16 146.921 132.32 146.921 129.24C146.921 126.24 148.981 124.22 151.961 124.22C155.101 124.22 156.981 126.38 157.001 129.2ZM151.961 125.16C150.181 125.14 149.701 127.08 149.701 129.22C149.701 131.36 150.181 133.24 151.961 133.24C153.721 133.24 154.221 131.36 154.221 129.22C154.221 127.1 153.721 125.18 151.961 125.16ZM168.681 129.2C168.681 132.3 166.661 134.14 163.641 134.2C160.621 134.16 158.601 132.32 158.601 129.24C158.601 126.24 160.661 124.22 163.641 124.22C166.781 124.22 168.661 126.38 168.681 129.2ZM163.641 125.16C161.861 125.14 161.381 127.08 161.381 129.22C161.381 131.36 161.861 133.24 163.641 133.24C165.401 133.24 165.901 131.36 165.901 129.22C165.901 127.1 165.401 125.18 163.641 125.16ZM169.88 134L171.34 132.58V122.26L169.9 121.56L173.74 119L173.72 132.6L175.28 134H169.88Z" fill="black"/>
<path d="M256.702 18.82C256.722 23.48 253.902 26.38 249.502 26.46C245.122 26.4 242.302 23.52 242.302 18.86C242.302 14.34 245.182 11.22 249.502 11.22C254.062 11.22 256.682 14.54 256.702 18.82ZM249.502 12.4C246.542 12.38 245.442 15.6 245.442 18.84C245.442 22.1 246.522 25.28 249.502 25.28C252.462 25.28 253.562 22.08 253.562 18.84C253.562 15.62 252.462 12.42 249.502 12.4ZM264.313 26L265.753 24.6L265.773 20.3C265.773 19.24 265.713 18.78 265.413 18.32C265.133 17.88 264.633 17.66 263.913 17.66C262.453 17.66 262.033 18.78 261.933 19.34V24.6L263.493 26H258.093L259.533 24.6V19.04L258.093 18.16L259.533 17.2V17.18L261.333 15.98L261.793 17.94C262.433 16.86 263.373 16.22 264.933 16.22C266.833 16.22 268.173 17.42 268.173 19.7L268.153 24.6L269.713 26H264.313ZM270.298 26L271.758 24.58V14.26L270.318 13.56L274.158 11L274.138 24.6L275.698 26H270.298ZM276.531 26L277.971 24.6V18.9L276.531 18.16L277.971 17.28L279.151 16.56L280.371 15.82V24.6L281.911 26H276.531ZM277.771 13.2C277.771 12.38 278.451 11.68 279.291 11.68C280.111 11.68 280.811 12.38 280.811 13.2C280.811 14.04 280.111 14.72 279.291 14.72C278.451 14.72 277.771 14.04 277.771 13.2ZM288.845 26L290.285 24.6L290.305 20.3C290.305 19.24 290.245 18.78 289.945 18.32C289.665 17.88 289.165 17.66 288.445 17.66C286.985 17.66 286.565 18.78 286.465 19.34V24.6L288.025 26H282.625L284.065 24.6V19.04L282.625 18.16L284.065 17.2V17.18L285.865 15.98L286.325 17.94C286.965 16.86 287.905 16.22 289.465 16.22C291.365 16.22 292.705 17.42 292.705 19.7L292.685 24.6L294.245 26H288.845ZM299.93 26.2C296.83 26.2 295.23 23.86 295.23 21.4C295.23 18.6 297.13 16.22 300.05 16.22C301.71 16.22 304.01 17.04 304.21 19.82H304.23V20V20.22V20.82H297.49C297.57 22.84 298.83 24.18 300.81 24.18C302.21 24.18 303.37 23.58 304.15 22.32C304.15 24.58 302.03 26.2 299.93 26.2ZM299.75 17.16C298.67 17.16 297.51 18.12 297.49 19.82H301.67C301.67 18.24 301.01 17.16 299.75 17.16ZM324.396 20.1V26.6L322.296 24.96C321.196 26 319.936 26.36 318.616 26.36C314.476 26.36 311.816 23.3 311.816 19.26C311.816 14.22 314.736 11.32 319.116 11.32C320.116 11.32 321.396 11.78 322.396 12.7L324.396 11.14V17.64C322.636 14.92 321.596 12.7 319.016 12.7C316.616 12.7 314.956 15.2 314.956 18.64C314.956 22.08 316.196 25.04 319.056 25.04C321.876 25.04 323.356 21.6 324.396 20.1ZM336.677 21.2C336.677 24.3 334.657 26.14 331.637 26.2C328.617 26.16 326.597 24.32 326.597 21.24C326.597 18.24 328.657 16.22 331.637 16.22C334.777 16.22 336.657 18.38 336.677 21.2ZM331.637 17.16C329.857 17.14 329.377 19.08 329.377 21.22C329.377 23.36 329.857 25.24 331.637 25.24C333.397 25.24 333.897 23.36 333.897 21.22C333.897 19.1 333.397 17.18 331.637 17.16ZM347.577 15.82V23.84L349.017 24.84L345.777 26.46L345.317 24.54C344.697 25.6 343.817 26.22 342.277 26.22C340.377 26.22 339.077 25.02 339.077 22.74V18.88L337.657 18.16L340.277 16.56V16.58L341.497 15.82L341.477 22.02C341.497 23.7 341.857 24.74 343.337 24.74C344.677 24.74 345.057 23.8 345.177 23.24V18.9L343.737 18.16L346.357 16.56V16.58L347.577 15.82ZM349.89 26L351.33 24.6V19.04L349.89 18.16L351.33 17.2V17.18L353.13 15.98L353.67 18.52C354.13 17.2 355.07 16.22 356.23 16.22C356.91 16.22 357.73 16.72 357.73 17.78C357.73 18.72 357.05 19.4 356.33 19.4C355.57 19.4 354.91 18.88 354.83 17.98C354.09 18.74 353.81 19.6 353.73 20.8V24.6L355.29 26H349.89ZM362.09 16.12C362.77 16.12 363.53 16.38 364.05 16.68L365.61 15.82L365.63 19.92C365.19 19.12 364.69 18.42 363.95 17.84C363.49 17.44 362.77 17.2 362.23 17.2C361.27 17.2 360.57 17.62 360.57 18.4C360.57 19.02 361.35 19.4 362.55 19.7C364.63 20.22 365.97 20.84 365.97 23.12C365.97 24.46 364.91 26.2 362.63 26.2C361.59 26.2 360.85 25.94 360.29 25.62L358.79 26.36L358.77 21.9C359.41 22.88 359.95 23.9 360.85 24.6C361.41 25.02 361.95 25.1 362.67 25.1C363.33 25.1 364.17 24.7 364.17 23.88C364.17 22.74 362.79 22.5 361.85 22.3C359.97 21.9 358.81 21.1 358.81 19.14C358.81 17.18 360.33 16.12 362.09 16.12ZM372.469 26.2C369.369 26.2 367.769 23.86 367.769 21.4C367.769 18.6 369.669 16.22 372.589 16.22C374.249 16.22 376.549 17.04 376.749 19.82H376.769V20V20.22V20.82H370.029C370.109 22.84 371.369 24.18 373.349 24.18C374.749 24.18 375.909 23.58 376.689 22.32C376.689 24.58 374.569 26.2 372.469 26.2ZM372.289 17.16C371.209 17.16 370.049 18.12 370.029 19.82H374.209C374.209 18.24 373.549 17.16 372.289 17.16ZM381.719 16.12C382.399 16.12 383.159 16.38 383.679 16.68L385.239 15.82L385.259 19.92C384.819 19.12 384.319 18.42 383.579 17.84C383.119 17.44 382.399 17.2 381.859 17.2C380.899 17.2 380.199 17.62 380.199 18.4C380.199 19.02 380.979 19.4 382.179 19.7C384.259 20.22 385.599 20.84 385.599 23.12C385.599 24.46 384.539 26.2 382.259 26.2C381.219 26.2 380.479 25.94 379.919 25.62L378.419 26.36L378.399 21.9C379.039 22.88 379.579 23.9 380.479 24.6C381.039 25.02 381.579 25.1 382.299 25.1C382.959 25.1 383.799 24.7 383.799 23.88C383.799 22.74 382.419 22.5 381.479 22.3C379.599 21.9 378.439 21.1 378.439 19.14C378.439 17.18 379.959 16.12 381.719 16.12Z" fill="black"/>
<path d="M954.08 44.34C955.02 44.34 956.14 44.78 956.92 45.3L958.5 44.18L958.46 51C956.74 47 956 45.42 953.64 45.42C952.44 45.42 951.4 46.4 951.4 47.56C951.4 49.26 952.8 49.62 955.36 50.72C956.92 51.5 958.68 52.58 958.68 55.14C958.68 57.34 956.98 59.12 954.02 59.12C952.6 59.12 951.5 58.7 950.7 58.12L949.12 59.22L949.18 52.44C950.56 55.92 951.9 58 953.82 58C955.2 58 956.26 57.34 956.26 55.8C956.26 53.94 953.8 53.22 952.34 52.58C951.46 52.16 949.08 50.94 949.08 48.44C949.08 45.56 951.38 44.34 954.08 44.34ZM977.013 49.42L974.993 51.04L972.513 57.12L971.373 59.88L968.193 52.16L966.173 57.08L965.013 59.88L961.333 50.96L959.493 49.42H964.993L963.733 50.54L965.673 55.76L967.613 50.78L966.453 49.42H971.333L970.073 50.54L972.013 55.78L973.953 50.78L972.793 49.42H977.013ZM976.71 59L978.15 57.6V51.9L976.71 51.16L978.15 50.28L979.33 49.56L980.55 48.82V57.6L982.09 59H976.71ZM977.95 46.2C977.95 45.38 978.63 44.68 979.47 44.68C980.29 44.68 980.99 45.38 980.99 46.2C980.99 47.04 980.29 47.72 979.47 47.72C978.63 47.72 977.95 47.04 977.95 46.2ZM988.144 57.62C988.924 57.62 989.744 57.2 990.424 56.32C990.344 58.3 988.744 59.2 987.204 59.2C984.964 59.2 983.884 57.8 983.884 55.52L983.904 50.7H982.504V49.42H983.504L985.484 45.6H986.264V49.42H989.624V50.7H986.304L986.284 55.18C986.284 56.5 986.404 57.62 988.144 57.62ZM995.697 59.2C992.817 59.2 990.917 57.18 990.917 54.52C990.917 51.32 993.097 49.22 996.137 49.22C998.017 49.22 999.517 50.4 999.517 52.02C999.517 52.82 998.997 53.56 998.077 53.56C997.337 53.56 996.657 53.1 996.657 52.1C996.657 51.3 997.117 50.16 995.917 50.16C994.417 50.16 993.177 51.48 993.177 53.4C993.177 55.84 994.577 57.18 996.517 57.18C997.757 57.18 999.157 56.62 999.817 55.3C999.817 57.56 997.697 59.2 995.697 59.2ZM1006.53 50.66C1005.11 50.66 1004.67 51.74 1004.55 52.3V57.6L1006.11 59H1000.71L1002.17 57.58V47.26L1000.73 46.56L1004.57 44L1004.55 50.7C1005.19 49.76 1006.11 49.22 1007.55 49.22C1009.45 49.22 1010.79 50.42 1010.79 52.7L1010.77 57.6L1012.33 59H1006.93L1008.37 57.6L1008.39 53.3C1008.39 52.24 1008.33 51.78 1008.03 51.32C1007.75 50.88 1007.25 50.66 1006.53 50.66Z" fill="black"/>
<path d="M5.55884 82.3977C196.864 129.096 304.371 127.969 495.748 82.3977C673.199 22.5356 778.651 15.9516 985.937 82.3977C1099.1 105.519 1182.72 114.767 1271.66 110.535" stroke="url(#paint0_linear_610_789)" stroke-width="3"/>
<path d="M1.00019 81.6888C213.409 27.6437 318.801 32.6202 491.17 81.6888C682.785 120.449 789.67 121.091 981.34 81.6888C1102.73 42.5371 1189.19 28.5857 1275.64 35.843" stroke="url(#paint1_linear_610_789)" stroke-width="3"/>
<circle cx="8" cy="8" r="8" transform="matrix(1 0 0 -1 90.9902 111)" fill="black"/>
<circle cx="8" cy="8" r="8" transform="matrix(1 0 0 -1 972.442 90)" fill="black"/>
<circle cx="8" cy="8" r="8" transform="matrix(1 0 0 -1 1260.42 44)" fill="black"/>
<circle cx="8" cy="8" r="8" transform="matrix(1 0 0 -1 586.5 109)" fill="black"/>
<circle cx="8" cy="8" r="8" transform="matrix(1 0 0 -1 306.277 55)" fill="black"/>
<circle cx="8" cy="8" r="8" transform="matrix(1 0 0 -1 766.472 45)" fill="black"/>
<defs>
<linearGradient id="paint0_linear_610_789" x1="5.55884" y1="116.544" x2="1966.07" y2="141.516" gradientUnits="userSpaceOnUse">
<stop/>
<stop offset="0.430045" stop-opacity="0.19"/>
<stop offset="0.630208" stop-opacity="0"/>
</linearGradient>
<linearGradient id="paint1_linear_610_789" x1="1961.68" y1="116.503" x2="1.00024" y2="116.503" gradientUnits="userSpaceOnUse">
<stop offset="0.28125"/>
<stop offset="0.921875" stop-color="#040404" stop-opacity="0.03"/>
</linearGradient>
</defs>
</svg>
