<svg width="364" height="817" viewBox="0 0 364 817" fill="none" xmlns="http://www.w3.org/2000/svg">
<rect width="363.273" height="815.842" transform="translate(0 1)" fill="white"/>
<path d="M56.6804 356.512L54.9524 357.856V367.008H58.8564L61.4644 363.472L61.0804 368H51.0484L52.7124 366.72V357.808L51.0484 356.512H56.6804ZM66.5953 368.16C64.1153 368.16 62.8353 366.288 62.8353 364.32C62.8353 362.08 64.3553 360.176 66.6913 360.176C68.0193 360.176 69.8593 360.832 70.0193 363.056H70.0353V363.2V363.376V363.856H64.6433C64.7073 365.472 65.7153 366.544 67.2993 366.544C68.4193 366.544 69.3473 366.064 69.9713 365.056C69.9713 366.864 68.2753 368.16 66.5953 368.16ZM66.4513 360.928C65.5873 360.928 64.6593 361.696 64.6433 363.056H67.9873C67.9873 361.792 67.4593 360.928 66.4513 360.928ZM93.4487 356.464L91.7527 357.92L88.1527 367.664L87.7207 368.832L84.2807 359.904L82.1367 365.92L81.5287 367.664L81.0807 368.832L76.6647 357.744L75.1927 356.464H80.2967L79.0327 357.552L81.6247 364.544L83.7207 358.464L83.3527 357.52L82.1367 356.464H87.4007L85.8487 357.728L88.2967 364.624L90.8087 357.536L89.5767 356.464H93.4487ZM98.5229 362.544H98.5389C98.4749 361.456 97.7709 360.864 96.9709 360.864C96.4909 360.864 95.7389 360.96 95.5149 361.28C96.2029 361.552 96.3789 361.952 96.3789 362.496C96.3789 363.12 95.8509 363.616 95.2749 363.616C94.5709 363.616 94.1869 363.056 94.1869 362.32C94.1869 361.376 95.5949 360.096 97.2429 360.096H97.4989C98.8909 360.096 100.363 360.736 100.363 362.88C100.363 363.536 100.347 366 100.347 366.736L101.563 368H98.9389L98.5389 366.768C98.0429 367.632 96.9389 368.224 95.8829 368.224C94.3949 368.224 93.9309 367.12 93.9309 366.4C93.9309 365.28 94.8749 364.624 95.8669 364.384C97.0189 364.112 98.5389 363.936 98.5229 362.544ZM96.6509 367.024C97.2269 367.024 98.1389 366.672 98.4909 365.824L98.5229 363.888C98.1389 364.384 97.5469 364.688 97.0189 364.896C96.1549 365.28 95.8349 365.648 95.8349 366.256C95.8349 366.736 96.2349 367.024 96.6509 367.024ZM102.559 362.864C102.559 361.232 104.111 360.176 106.159 360.176H106.271C105.903 359.52 105.791 358.64 105.791 358.208C105.791 357.776 105.903 357.408 106.127 357.152C106.335 356.864 106.687 356.672 107.087 356.672C107.759 356.672 108.287 357.2 108.287 357.872C108.287 358.544 107.759 359.072 107.087 359.072C106.847 359.072 106.623 359.008 106.447 358.896C106.463 359.168 106.527 359.44 106.623 359.712C106.687 359.904 106.767 360.08 106.863 360.224C108.479 360.448 109.455 361.44 109.455 362.864C109.455 364.416 108.207 365.44 106.351 365.552L105.439 366.112C106.639 366.576 107.855 367.04 108.607 367.408C109.519 367.872 109.775 368.432 109.775 369.104C109.775 370.464 108.047 371.744 105.663 371.744C103.727 371.744 102.031 371.072 102.031 369.776C102.031 368.544 103.759 367.968 104.975 367.776C104.255 367.488 103.583 367.232 103.375 367.136V366.624L104.415 366.144L105.391 365.52C103.695 365.344 102.559 364.352 102.559 362.864ZM103.791 369.52C103.759 370.384 104.783 371.072 105.935 371.072C107.167 371.072 108.063 370.544 108.063 369.824C108.063 369.152 107.327 368.768 106.751 368.496L105.775 368.08C104.703 368.208 103.807 368.992 103.791 369.52ZM104.655 362.864C104.655 364.112 105.055 364.864 106.015 364.864C106.975 364.864 107.375 364.112 107.375 362.864C107.375 361.6 106.975 360.848 106.015 360.848C105.055 360.848 104.655 361.6 104.655 362.864ZM118.884 364.16C118.884 366.64 117.268 368.112 114.852 368.16C112.436 368.128 110.82 366.656 110.82 364.192C110.82 361.792 112.468 360.176 114.852 360.176C117.364 360.176 118.868 361.904 118.884 364.16ZM114.852 360.928C113.428 360.912 113.044 362.464 113.044 364.176C113.044 365.888 113.428 367.392 114.852 367.392C116.26 367.392 116.66 365.888 116.66 364.176C116.66 362.48 116.26 360.944 114.852 360.928ZM124.883 368L126.035 366.88L126.051 363.44C126.051 362.592 126.003 362.224 125.763 361.856C125.539 361.504 125.139 361.328 124.563 361.328C123.395 361.328 123.059 362.224 122.979 362.672V366.88L124.227 368H119.907L121.059 366.88V362.432L119.907 361.728L121.059 360.96V360.944L122.499 359.984L122.867 361.552C123.379 360.688 124.131 360.176 125.379 360.176C126.899 360.176 127.971 361.136 127.971 362.96L127.955 366.88L129.203 368H124.883ZM51.6969 384L53.3609 382.72V373.808L51.6969 372.512H54.6089C54.6089 372.512 56.4649 372.496 58.1609 372.496C60.2409 372.496 61.4729 373.68 61.4729 375.184C61.4729 376.4 60.9289 377.408 58.8649 378.048C60.6889 378.192 62.1129 379.104 62.1129 381.024C62.1129 382.56 60.8969 384 58.3049 384H51.6969ZM56.4329 378.528H55.6009V383.184H57.1049C58.4649 383.152 59.7289 382.48 59.7289 380.944C59.7289 379.392 58.5289 378.528 56.4329 378.528ZM55.7929 373.328H55.6009V377.712C57.3289 377.712 59.0889 377.616 59.0889 375.584C59.0889 374.704 58.7529 373.936 58.1289 373.632C57.5369 373.312 56.7849 373.328 55.7929 373.328ZM71.6103 380.16C71.6103 382.64 69.9943 384.112 67.5783 384.16C65.1623 384.128 63.5463 382.656 63.5463 380.192C63.5463 377.792 65.1943 376.176 67.5783 376.176C70.0903 376.176 71.5943 377.904 71.6103 380.16ZM67.5783 376.928C66.1543 376.912 65.7703 378.464 65.7703 380.176C65.7703 381.888 66.1543 383.392 67.5783 383.392C68.9863 383.392 69.3863 381.888 69.3863 380.176C69.3863 378.48 68.9863 376.944 67.5783 376.928ZM80.954 380.16C80.954 382.64 79.338 384.112 76.922 384.16C74.506 384.128 72.89 382.656 72.89 380.192C72.89 377.792 74.538 376.176 76.922 376.176C79.434 376.176 80.938 377.904 80.954 380.16ZM76.922 376.928C75.498 376.912 75.114 378.464 75.114 380.176C75.114 381.888 75.498 383.392 76.922 383.392C78.33 383.392 78.73 381.888 78.73 380.176C78.73 378.48 78.33 376.944 76.922 376.928ZM86.2498 382.896C86.8738 382.896 87.5298 382.56 88.0738 381.856C88.0098 383.44 86.7298 384.16 85.4978 384.16C83.7057 384.16 82.8418 383.04 82.8418 381.216L82.8578 377.36H81.7378V376.336H82.5378L84.1218 373.28H84.7458V376.336H87.4338V377.36H84.7778L84.7618 380.944C84.7618 382 84.8578 382.896 86.2498 382.896ZM92.2921 384.16C89.9881 384.16 88.4681 382.544 88.4681 380.416C88.4681 377.856 90.2121 376.176 92.6441 376.176C94.1481 376.176 95.3481 377.12 95.3481 378.416C95.3481 379.056 94.9321 379.648 94.1961 379.648C93.6041 379.648 93.0601 379.28 93.0601 378.48C93.0601 377.84 93.4281 376.928 92.4681 376.928C91.2681 376.928 90.2761 377.984 90.2761 379.52C90.2761 381.472 91.3961 382.544 92.9481 382.544C93.9401 382.544 95.0601 382.096 95.5881 381.04C95.5881 382.848 93.8921 384.16 92.2921 384.16ZM101.375 378.544H101.391C101.327 377.456 100.623 376.864 99.8225 376.864C99.3425 376.864 98.5905 376.96 98.3665 377.28C99.0545 377.552 99.2305 377.952 99.2305 378.496C99.2305 379.12 98.7025 379.616 98.1265 379.616C97.4225 379.616 97.0385 379.056 97.0385 378.32C97.0385 377.376 98.4465 376.096 100.095 376.096H100.351C101.743 376.096 103.215 376.736 103.215 378.88C103.215 379.536 103.199 382 103.199 382.736L104.415 384H101.791L101.391 382.768C100.895 383.632 99.7905 384.224 98.7345 384.224C97.2465 384.224 96.7825 383.12 96.7825 382.4C96.7825 381.28 97.7265 380.624 98.7185 380.384C99.8705 380.112 101.391 379.936 101.375 378.544ZM99.5025 383.024C100.079 383.024 100.991 382.672 101.343 381.824L101.375 379.888C100.991 380.384 100.399 380.688 99.8705 380.896C99.0065 381.28 98.6865 381.648 98.6865 382.256C98.6865 382.736 99.0865 383.024 99.5025 383.024ZM109.603 384L110.755 382.88L110.771 379.536C110.755 378.192 110.467 377.36 109.411 377.36C108.371 377.36 108.099 378.208 108.019 378.64V382.88L109.266 384H104.947L106.099 382.88V378.432L104.947 377.728L106.099 376.96V376.944L107.539 375.984L107.891 377.52C108.371 376.672 109.091 376.176 110.259 376.176C111.315 376.176 112.131 376.704 112.499 377.728C112.979 376.752 113.699 376.176 114.963 376.176C116.387 376.176 117.395 377.136 117.395 378.96L117.379 382.88L118.627 384H114.307L115.459 382.88L115.475 379.536C115.459 378.192 115.171 377.36 114.115 377.36C112.739 377.36 112.691 378.896 112.691 378.896V378.96L112.675 382.88L113.923 384H109.603ZM124.558 376.208C126.27 376.208 128.046 377.424 128.046 380.08C128.046 382.224 126.238 384.208 123.614 384.208C123.166 384.208 122.654 384.128 122.19 383.952V386.464L123.438 387.6H119.118L120.27 386.464V378.432L119.118 377.728L120.27 376.96V376.944L121.71 375.984L122.094 377.408C122.638 376.576 123.662 376.208 124.558 376.208ZM123.486 377.632C123.166 377.632 122.638 377.664 122.19 378.016V381.616C122.302 382.848 122.926 383.408 123.95 383.408C125.246 383.408 126.062 382.272 126.062 380.816C126.062 378.656 124.91 377.632 123.486 377.632Z" fill="black"/>
<path d="M240.213 788L241.877 786.72V777.808L240.213 776.512H243.125C243.125 776.512 244.901 776.496 246.357 776.496C248.725 776.496 250.149 778 250.149 779.664C250.149 781.584 248.645 783.312 246.021 783.312C244.933 783.312 244.373 783.28 244.117 783.248V786.656L245.861 788H240.213ZM244.469 777.328H244.117V782.512C245.909 782.512 247.765 782.464 247.765 779.904C247.765 778.864 247.429 778 246.805 777.632C246.213 777.312 245.461 777.328 244.469 777.328ZM250.65 788L251.802 786.88V782.432L250.65 781.728L251.802 780.96V780.944L253.242 779.984L253.674 782.016C254.042 780.96 254.794 780.176 255.722 780.176C256.266 780.176 256.922 780.576 256.922 781.424C256.922 782.176 256.378 782.72 255.802 782.72C255.194 782.72 254.666 782.304 254.602 781.584C254.01 782.192 253.786 782.88 253.722 783.84V786.88L254.97 788H250.65ZM265.626 784.16C265.626 786.64 264.01 788.112 261.594 788.16C259.178 788.128 257.562 786.656 257.562 784.192C257.562 781.792 259.21 780.176 261.594 780.176C264.106 780.176 265.61 781.904 265.626 784.16ZM261.594 780.928C260.17 780.912 259.786 782.464 259.786 784.176C259.786 785.888 260.17 787.392 261.594 787.392C263.002 787.392 263.402 785.888 263.402 784.176C263.402 782.48 263.002 780.944 261.594 780.928ZM270.41 788.208C268.698 788.208 266.922 786.992 266.922 784.336C266.922 782.192 268.73 780.208 271.354 780.208C271.802 780.208 272.298 780.288 272.778 780.48V778.608L271.626 778.048L274.122 776.384V776.4L274.698 776V786.272L275.85 787.072L273.258 788.368L272.874 786.992C272.33 787.84 271.306 788.208 270.41 788.208ZM271.482 786.784C271.802 786.784 272.33 786.752 272.778 786.416V782.8C272.666 781.584 272.042 781.008 271.018 781.008C269.722 781.008 268.906 782.144 268.906 783.6C268.906 785.76 270.058 786.784 271.482 786.784ZM284.252 779.856V786.272L285.404 787.072L282.812 788.368L282.444 786.832C281.948 787.68 281.244 788.176 280.012 788.176C278.492 788.176 277.452 787.216 277.452 785.392V782.304L276.316 781.728L278.412 780.448V780.464L279.388 779.856L279.372 784.816C279.388 786.16 279.676 786.992 280.86 786.992C281.932 786.992 282.236 786.24 282.332 785.792V782.32L281.18 781.728L283.276 780.448V780.464L284.252 779.856ZM290.183 788.16C287.879 788.16 286.359 786.544 286.359 784.416C286.359 781.856 288.103 780.176 290.535 780.176C292.039 780.176 293.239 781.12 293.239 782.416C293.239 783.056 292.823 783.648 292.087 783.648C291.495 783.648 290.951 783.28 290.951 782.48C290.951 781.84 291.319 780.928 290.359 780.928C289.159 780.928 288.167 781.984 288.167 783.52C288.167 785.472 289.287 786.544 290.839 786.544C291.831 786.544 292.951 786.096 293.479 785.04C293.479 786.848 291.783 788.16 290.183 788.16ZM298.609 786.896C299.233 786.896 299.889 786.56 300.433 785.856C300.369 787.44 299.089 788.16 297.857 788.16C296.065 788.16 295.201 787.04 295.201 785.216L295.217 781.36H294.097V780.336H294.897L296.481 777.28H297.105V780.336H299.793V781.36H297.137L297.121 784.944C297.121 786 297.217 786.896 298.609 786.896ZM237.033 804L238.697 802.72V793.808L237.033 792.512H242.489C245.673 792.512 248.729 794.208 248.729 798.288C248.729 801.472 246.649 804.032 242.361 804.032C239.625 804.032 239.577 804 239.577 804H237.033ZM242.025 793.408H240.937V803.12H242.345C244.969 803.12 246.169 801.28 246.169 798.448C246.169 795.6 244.889 793.408 242.025 793.408ZM253.923 804.16C251.443 804.16 250.163 802.288 250.163 800.32C250.163 798.08 251.683 796.176 254.019 796.176C255.347 796.176 257.187 796.832 257.347 799.056H257.363V799.2V799.376V799.856H251.971C252.035 801.472 253.043 802.544 254.627 802.544C255.747 802.544 256.675 802.064 257.299 801.056C257.299 802.864 255.603 804.16 253.923 804.16ZM253.779 796.928C252.915 796.928 251.987 797.696 251.971 799.056H255.315C255.315 797.792 254.787 796.928 253.779 796.928ZM261.324 796.096C261.868 796.096 262.476 796.304 262.892 796.544L264.14 795.856L264.156 799.136C263.804 798.496 263.404 797.936 262.812 797.472C262.444 797.152 261.868 796.96 261.436 796.96C260.668 796.96 260.108 797.296 260.108 797.92C260.108 798.416 260.732 798.72 261.692 798.96C263.356 799.376 264.428 799.872 264.428 801.696C264.428 802.768 263.58 804.16 261.756 804.16C260.924 804.16 260.332 803.952 259.884 803.696L258.684 804.288L258.668 800.72C259.18 801.504 259.612 802.32 260.332 802.88C260.78 803.216 261.212 803.28 261.788 803.28C262.316 803.28 262.988 802.96 262.988 802.304C262.988 801.392 261.884 801.2 261.132 801.04C259.628 800.72 258.7 800.08 258.7 798.512C258.7 796.944 259.916 796.096 261.324 796.096ZM265.611 804L266.763 802.88V798.32L265.611 797.728L266.763 797.024L267.707 796.448L268.683 795.856V802.88L269.915 804H265.611ZM266.603 793.76C266.603 793.104 267.147 792.544 267.819 792.544C268.475 792.544 269.035 793.104 269.035 793.76C269.035 794.432 268.475 794.976 267.819 794.976C267.147 794.976 266.603 794.432 266.603 793.76ZM270.95 798.864C270.95 797.232 272.502 796.176 274.55 796.176H274.662C274.294 795.52 274.182 794.64 274.182 794.208C274.182 793.776 274.294 793.408 274.518 793.152C274.726 792.864 275.078 792.672 275.478 792.672C276.15 792.672 276.678 793.2 276.678 793.872C276.678 794.544 276.15 795.072 275.478 795.072C275.238 795.072 275.014 795.008 274.838 794.896C274.854 795.168 274.918 795.44 275.014 795.712C275.078 795.904 275.158 796.08 275.254 796.224C276.87 796.448 277.846 797.44 277.846 798.864C277.846 800.416 276.598 801.44 274.742 801.552L273.83 802.112C275.03 802.576 276.246 803.04 276.998 803.408C277.91 803.872 278.166 804.432 278.166 805.104C278.166 806.464 276.438 807.744 274.054 807.744C272.118 807.744 270.422 807.072 270.422 805.776C270.422 804.544 272.15 803.968 273.366 803.776C272.646 803.488 271.974 803.232 271.766 803.136V802.624L272.806 802.144L273.782 801.52C272.086 801.344 270.95 800.352 270.95 798.864ZM272.182 805.52C272.15 806.384 273.174 807.072 274.326 807.072C275.558 807.072 276.454 806.544 276.454 805.824C276.454 805.152 275.718 804.768 275.142 804.496L274.166 804.08C273.094 804.208 272.198 804.992 272.182 805.52ZM273.046 798.864C273.046 800.112 273.446 800.864 274.406 800.864C275.366 800.864 275.766 800.112 275.766 798.864C275.766 797.6 275.366 796.848 274.406 796.848C273.446 796.848 273.046 797.6 273.046 798.864ZM283.93 804L285.082 802.88L285.098 799.44C285.098 798.592 285.05 798.224 284.81 797.856C284.586 797.504 284.186 797.328 283.61 797.328C282.442 797.328 282.106 798.224 282.026 798.672V802.88L283.274 804H278.954L280.106 802.88V798.432L278.954 797.728L280.106 796.96V796.944L281.546 795.984L281.914 797.552C282.426 796.688 283.178 796.176 284.426 796.176C285.946 796.176 287.018 797.136 287.018 798.96L287.002 802.88L288.25 804H283.93ZM292.798 804.16C290.318 804.16 289.038 802.288 289.038 800.32C289.038 798.08 290.558 796.176 292.894 796.176C294.222 796.176 296.062 796.832 296.222 799.056H296.238V799.2V799.376V799.856H290.846C290.91 801.472 291.918 802.544 293.502 802.544C294.622 802.544 295.55 802.064 296.174 801.056C296.174 802.864 294.478 804.16 292.798 804.16ZM292.654 796.928C291.79 796.928 290.862 797.696 290.846 799.056H294.19C294.19 797.792 293.662 796.928 292.654 796.928ZM297.095 804L298.247 802.88V798.432L297.095 797.728L298.247 796.96V796.944L299.687 795.984L300.119 798.016C300.487 796.96 301.239 796.176 302.167 796.176C302.711 796.176 303.367 796.576 303.367 797.424C303.367 798.176 302.823 798.72 302.247 798.72C301.639 798.72 301.111 798.304 301.047 797.584C300.455 798.192 300.231 798.88 300.167 799.84V802.88L301.415 804H297.095Z" fill="black"/>
<path d="M245.458 478.28V483.48L243.778 482.168C242.898 483 241.89 483.288 240.834 483.288C237.522 483.288 235.394 480.84 235.394 477.608C235.394 473.576 237.73 471.256 241.234 471.256C242.034 471.256 243.058 471.624 243.858 472.36L245.458 471.112V476.312C244.05 474.136 243.218 472.36 241.154 472.36C239.234 472.36 237.906 474.36 237.906 477.112C237.906 479.864 238.898 482.232 241.186 482.232C243.442 482.232 244.626 479.48 245.458 478.28ZM255.282 479.16C255.282 481.64 253.666 483.112 251.25 483.16C248.834 483.128 247.218 481.656 247.218 479.192C247.218 476.792 248.866 475.176 251.25 475.176C253.762 475.176 255.266 476.904 255.282 479.16ZM251.25 475.928C249.826 475.912 249.442 477.464 249.442 479.176C249.442 480.888 249.826 482.392 251.25 482.392C252.658 482.392 253.058 480.888 253.058 479.176C253.058 477.48 252.658 475.944 251.25 475.928ZM261.282 483L262.434 481.88L262.45 478.44C262.45 477.592 262.402 477.224 262.162 476.856C261.938 476.504 261.538 476.328 260.962 476.328C259.794 476.328 259.458 477.224 259.378 477.672V481.88L260.626 483H256.306L257.458 481.88V477.432L256.306 476.728L257.458 475.96V475.944L258.898 474.984L259.266 476.552C259.778 475.688 260.53 475.176 261.778 475.176C263.298 475.176 264.37 476.136 264.37 477.96L264.354 481.88L265.602 483H261.282ZM269.238 475.096C269.782 475.096 270.39 475.304 270.806 475.544L272.054 474.856L272.07 478.136C271.718 477.496 271.318 476.936 270.726 476.472C270.358 476.152 269.782 475.96 269.35 475.96C268.582 475.96 268.022 476.296 268.022 476.92C268.022 477.416 268.646 477.72 269.606 477.96C271.27 478.376 272.342 478.872 272.342 480.696C272.342 481.768 271.494 483.16 269.67 483.16C268.838 483.16 268.246 482.952 267.798 482.696L266.598 483.288L266.582 479.72C267.094 480.504 267.526 481.32 268.246 481.88C268.694 482.216 269.126 482.28 269.702 482.28C270.23 482.28 270.902 481.96 270.902 481.304C270.902 480.392 269.798 480.2 269.046 480.04C267.542 479.72 266.614 479.08 266.614 477.512C266.614 475.944 267.83 475.096 269.238 475.096ZM281.221 474.856V481.272L282.373 482.072L279.781 483.368L279.413 481.832C278.917 482.68 278.213 483.176 276.981 483.176C275.461 483.176 274.421 482.216 274.421 480.392V477.304L273.285 476.728L275.381 475.448V475.464L276.357 474.856L276.341 479.816C276.357 481.16 276.645 481.992 277.829 481.992C278.901 481.992 279.205 481.24 279.301 480.792V477.32L278.149 476.728L280.245 475.448V475.464L281.221 474.856ZM283.008 483L284.176 481.864V473.608L283.024 473.048L286.096 471L286.08 481.88L287.328 483H283.008ZM292.265 481.896C292.889 481.896 293.545 481.56 294.089 480.856C294.025 482.44 292.745 483.16 291.513 483.16C289.721 483.16 288.857 482.04 288.857 480.216L288.873 476.36H287.753V475.336H288.553L290.137 472.28H290.761V475.336H293.449V476.36H290.793L290.777 479.944C290.777 481 290.873 481.896 292.265 481.896ZM299.156 477.544H299.172C299.108 476.456 298.404 475.864 297.604 475.864C297.124 475.864 296.372 475.96 296.148 476.28C296.836 476.552 297.012 476.952 297.012 477.496C297.012 478.12 296.484 478.616 295.908 478.616C295.204 478.616 294.82 478.056 294.82 477.32C294.82 476.376 296.228 475.096 297.876 475.096H298.132C299.524 475.096 300.996 475.736 300.996 477.88C300.996 478.536 300.98 481 300.98 481.736L302.196 483H299.572L299.172 481.768C298.676 482.632 297.572 483.224 296.516 483.224C295.028 483.224 294.564 482.12 294.564 481.4C294.564 480.28 295.508 479.624 296.5 479.384C297.652 479.112 299.172 478.936 299.156 477.544ZM297.284 482.024C297.86 482.024 298.772 481.672 299.124 480.824L299.156 478.888C298.772 479.384 298.18 479.688 297.652 479.896C296.788 480.28 296.468 480.648 296.468 481.256C296.468 481.736 296.868 482.024 297.284 482.024ZM307.704 483L308.856 481.88L308.872 478.44C308.872 477.592 308.824 477.224 308.584 476.856C308.36 476.504 307.96 476.328 307.384 476.328C306.216 476.328 305.88 477.224 305.8 477.672V481.88L307.048 483H302.728L303.88 481.88V477.432L302.728 476.728L303.88 475.96V475.944L305.32 474.984L305.688 476.552C306.2 475.688 306.952 475.176 308.2 475.176C309.72 475.176 310.792 476.136 310.792 477.96L310.776 481.88L312.024 483H307.704ZM316.828 481.896C317.452 481.896 318.108 481.56 318.652 480.856C318.588 482.44 317.308 483.16 316.076 483.16C314.284 483.16 313.42 482.04 313.42 480.216L313.436 476.36H312.316V475.336H313.116L314.7 472.28H315.324V475.336H318.012V476.36H315.356L315.34 479.944C315.34 481 315.436 481.896 316.828 481.896ZM245.728 499L247.392 497.72V488.808L245.728 487.512H248.64C248.64 487.512 250.416 487.496 251.872 487.496C254.24 487.496 255.664 489 255.664 490.664C255.664 492.584 254.16 494.312 251.536 494.312C250.448 494.312 249.888 494.28 249.632 494.248V497.656L251.376 499H245.728ZM249.984 488.328H249.632V493.512C251.424 493.512 253.28 493.464 253.28 490.904C253.28 489.864 252.944 489 252.32 488.632C251.728 488.312 250.976 488.328 249.984 488.328ZM264.485 495.16C264.485 497.64 262.869 499.112 260.453 499.16C258.037 499.128 256.421 497.656 256.421 495.192C256.421 492.792 258.069 491.176 260.453 491.176C262.965 491.176 264.469 492.904 264.485 495.16ZM260.453 491.928C259.029 491.912 258.645 493.464 258.645 495.176C258.645 496.888 259.029 498.392 260.453 498.392C261.861 498.392 262.261 496.888 262.261 495.176C262.261 493.48 261.861 491.944 260.453 491.928ZM268.613 491.096C269.157 491.096 269.765 491.304 270.181 491.544L271.429 490.856L271.445 494.136C271.093 493.496 270.693 492.936 270.101 492.472C269.733 492.152 269.157 491.96 268.725 491.96C267.957 491.96 267.397 492.296 267.397 492.92C267.397 493.416 268.021 493.72 268.981 493.96C270.645 494.376 271.717 494.872 271.717 496.696C271.717 497.768 270.869 499.16 269.045 499.16C268.213 499.16 267.621 498.952 267.173 498.696L265.973 499.288L265.957 495.72C266.469 496.504 266.901 497.32 267.621 497.88C268.069 498.216 268.501 498.28 269.077 498.28C269.605 498.28 270.277 497.96 270.277 497.304C270.277 496.392 269.173 496.2 268.421 496.04C266.917 495.72 265.989 495.08 265.989 493.512C265.989 491.944 267.205 491.096 268.613 491.096ZM272.9 499L274.052 497.88V493.32L272.9 492.728L274.052 492.024L274.996 491.448L275.972 490.856V497.88L277.204 499H272.9ZM273.892 488.76C273.892 488.104 274.436 487.544 275.108 487.544C275.764 487.544 276.324 488.104 276.324 488.76C276.324 489.432 275.764 489.976 275.108 489.976C274.436 489.976 273.892 489.432 273.892 488.76ZM282.047 497.896C282.671 497.896 283.327 497.56 283.871 496.856C283.807 498.44 282.527 499.16 281.295 499.16C279.503 499.16 278.639 498.04 278.639 496.216L278.655 492.36H277.535V491.336H278.335L279.919 488.28H280.543V491.336H283.231V492.36H280.575L280.559 495.944C280.559 497 280.655 497.896 282.047 497.896ZM284.009 499L285.161 497.88V493.32L284.009 492.728L285.161 492.024L286.105 491.448L287.081 490.856V497.88L288.313 499H284.009ZM285.001 488.76C285.001 488.104 285.545 487.544 286.217 487.544C286.873 487.544 287.433 488.104 287.433 488.76C287.433 489.432 286.873 489.976 286.217 489.976C285.545 489.976 285.001 489.432 285.001 488.76ZM297.204 495.16C297.204 497.64 295.588 499.112 293.172 499.16C290.756 499.128 289.14 497.656 289.14 495.192C289.14 492.792 290.788 491.176 293.172 491.176C295.684 491.176 297.188 492.904 297.204 495.16ZM293.172 491.928C291.748 491.912 291.364 493.464 291.364 495.176C291.364 496.888 291.748 498.392 293.172 498.392C294.58 498.392 294.98 496.888 294.98 495.176C294.98 493.48 294.58 491.944 293.172 491.928ZM303.204 499L304.356 497.88L304.372 494.44C304.372 493.592 304.324 493.224 304.084 492.856C303.86 492.504 303.46 492.328 302.884 492.328C301.716 492.328 301.38 493.224 301.3 493.672V497.88L302.548 499H298.228L299.38 497.88V493.432L298.228 492.728L299.38 491.96V491.944L300.82 490.984L301.188 492.552C301.7 491.688 302.452 491.176 303.7 491.176C305.22 491.176 306.292 492.136 306.292 493.96L306.276 497.88L307.524 499H303.204Z" fill="black"/>
<path d="M65.2281 61L66.8921 59.72V50.808L65.2281 49.512H68.1401C68.1401 49.512 69.9961 49.496 71.6921 49.496C73.7721 49.496 75.0041 50.68 75.0041 52.184C75.0041 53.4 74.4601 54.408 72.3961 55.048C74.2201 55.192 75.6441 56.104 75.6441 58.024C75.6441 59.56 74.4281 61 71.8361 61H65.2281ZM69.9641 55.528H69.1321V60.184H70.6361C71.9961 60.152 73.2601 59.48 73.2601 57.944C73.2601 56.392 72.0601 55.528 69.9641 55.528ZM69.3241 50.328H69.1321V54.712C70.8601 54.712 72.6201 54.616 72.6201 52.584C72.6201 51.704 72.2841 50.936 71.6601 50.632C71.0681 50.312 70.3161 50.328 69.3241 50.328ZM84.5175 52.856V59.272L85.6695 60.072L83.0775 61.368L82.7095 59.832C82.2135 60.68 81.5095 61.176 80.2775 61.176C78.7575 61.176 77.7175 60.216 77.7175 58.392V55.304L76.5815 54.728L78.6775 53.448V53.464L79.6535 52.856L79.6375 57.816C79.6535 59.16 79.9415 59.992 81.1255 59.992C82.1975 59.992 82.5015 59.24 82.5975 58.792V55.32L81.4455 54.728L83.5415 53.448V53.464L84.5175 52.856ZM89.4724 53.096C90.0164 53.096 90.6244 53.304 91.0404 53.544L92.2884 52.856L92.3044 56.136C91.9524 55.496 91.5524 54.936 90.9604 54.472C90.5924 54.152 90.0164 53.96 89.5844 53.96C88.8164 53.96 88.2564 54.296 88.2564 54.92C88.2564 55.416 88.8804 55.72 89.8404 55.96C91.5044 56.376 92.5764 56.872 92.5764 58.696C92.5764 59.768 91.7284 61.16 89.9044 61.16C89.0724 61.16 88.4804 60.952 88.0324 60.696L86.8324 61.288L86.8164 57.72C87.3284 58.504 87.7604 59.32 88.4804 59.88C88.9284 60.216 89.3604 60.28 89.9364 60.28C90.4644 60.28 91.1364 59.96 91.1364 59.304C91.1364 58.392 90.0324 58.2 89.2804 58.04C87.7764 57.72 86.8484 57.08 86.8484 55.512C86.8484 53.944 88.0644 53.096 89.4724 53.096ZM93.759 61L94.911 59.88V55.32L93.759 54.728L94.911 54.024L95.855 53.448L96.831 52.856V59.88L98.063 61H93.759ZM94.751 50.76C94.751 50.104 95.295 49.544 95.967 49.544C96.623 49.544 97.183 50.104 97.183 50.76C97.183 51.432 96.623 51.976 95.967 51.976C95.295 51.976 94.751 51.432 94.751 50.76ZM103.61 61L104.762 59.88L104.778 56.44C104.778 55.592 104.73 55.224 104.49 54.856C104.266 54.504 103.866 54.328 103.29 54.328C102.122 54.328 101.786 55.224 101.706 55.672V59.88L102.954 61H98.634L99.786 59.88V55.432L98.634 54.728L99.786 53.96V53.944L101.226 52.984L101.594 54.552C102.106 53.688 102.858 53.176 104.106 53.176C105.626 53.176 106.698 54.136 106.698 55.96L106.682 59.88L107.93 61H103.61ZM112.478 61.16C109.998 61.16 108.718 59.288 108.718 57.32C108.718 55.08 110.238 53.176 112.574 53.176C113.902 53.176 115.742 53.832 115.902 56.056H115.918V56.2V56.376V56.856H110.526C110.59 58.472 111.598 59.544 113.182 59.544C114.302 59.544 115.23 59.064 115.854 58.056C115.854 59.864 114.158 61.16 112.478 61.16ZM112.334 53.928C111.47 53.928 110.542 54.696 110.526 56.056H113.87C113.87 54.792 113.342 53.928 112.334 53.928ZM119.879 53.096C120.423 53.096 121.031 53.304 121.447 53.544L122.695 52.856L122.711 56.136C122.359 55.496 121.959 54.936 121.367 54.472C120.999 54.152 120.423 53.96 119.991 53.96C119.223 53.96 118.663 54.296 118.663 54.92C118.663 55.416 119.287 55.72 120.247 55.96C121.911 56.376 122.983 56.872 122.983 58.696C122.983 59.768 122.135 61.16 120.311 61.16C119.479 61.16 118.887 60.952 118.439 60.696L117.239 61.288L117.223 57.72C117.735 58.504 118.167 59.32 118.887 59.88C119.335 60.216 119.767 60.28 120.343 60.28C120.871 60.28 121.543 59.96 121.543 59.304C121.543 58.392 120.439 58.2 119.687 58.04C118.183 57.72 117.255 57.08 117.255 55.512C117.255 53.944 118.471 53.096 119.879 53.096ZM127.269 53.096C127.813 53.096 128.421 53.304 128.837 53.544L130.085 52.856L130.101 56.136C129.749 55.496 129.349 54.936 128.757 54.472C128.389 54.152 127.813 53.96 127.381 53.96C126.613 53.96 126.053 54.296 126.053 54.92C126.053 55.416 126.677 55.72 127.637 55.96C129.301 56.376 130.373 56.872 130.373 58.696C130.373 59.768 129.525 61.16 127.701 61.16C126.869 61.16 126.277 60.952 125.829 60.696L124.629 61.288L124.613 57.72C125.125 58.504 125.557 59.32 126.277 59.88C126.725 60.216 127.157 60.28 127.733 60.28C128.261 60.28 128.933 59.96 128.933 59.304C128.933 58.392 127.829 58.2 127.077 58.04C125.573 57.72 124.645 57.08 124.645 55.512C124.645 53.944 125.861 53.096 127.269 53.096ZM77.3972 65.272C78.1492 65.272 79.0452 65.624 79.6692 66.04L80.9332 65.144L80.9012 70.6C79.5252 67.4 78.9332 66.136 77.0452 66.136C76.0852 66.136 75.2532 66.92 75.2532 67.848C75.2532 69.208 76.3732 69.496 78.4212 70.376C79.6692 71 81.0772 71.864 81.0772 73.912C81.0772 75.672 79.7172 77.096 77.3492 77.096C76.2132 77.096 75.3332 76.76 74.6932 76.296L73.4292 77.176L73.4772 71.752C74.5812 74.536 75.6532 76.2 77.1892 76.2C78.2932 76.2 79.1412 75.672 79.1412 74.44C79.1412 72.952 77.1732 72.376 76.0052 71.864C75.3012 71.528 73.3972 70.552 73.3972 68.552C73.3972 66.248 75.2372 65.272 77.3972 65.272ZM86.8156 77.16C84.5116 77.16 82.9916 75.544 82.9916 73.416C82.9916 70.856 84.7356 69.176 87.1676 69.176C88.6716 69.176 89.8716 70.12 89.8716 71.416C89.8716 72.056 89.4556 72.648 88.7196 72.648C88.1276 72.648 87.5836 72.28 87.5836 71.48C87.5836 70.84 87.9516 69.928 86.9916 69.928C85.7916 69.928 84.7996 70.984 84.7996 72.52C84.7996 74.472 85.9196 75.544 87.4716 75.544C88.4636 75.544 89.5836 75.096 90.1116 74.04C90.1116 75.848 88.4156 77.16 86.8156 77.16ZM95.4819 70.328C94.3459 70.328 93.9939 71.192 93.8979 71.64V75.88L95.1459 77H90.8259L91.9939 75.864V67.608L90.8419 67.048L93.9139 65L93.8979 70.36C94.4099 69.608 95.1459 69.176 96.2979 69.176C97.8179 69.176 98.8899 70.136 98.8899 71.96L98.8739 75.88L100.122 77H95.8019L96.9539 75.88L96.9699 72.44C96.9699 71.592 96.9219 71.224 96.6819 70.856C96.4579 70.504 96.0579 70.328 95.4819 70.328ZM108.977 73.16C108.977 75.64 107.361 77.112 104.945 77.16C102.529 77.128 100.913 75.656 100.913 73.192C100.913 70.792 102.561 69.176 104.945 69.176C107.457 69.176 108.961 70.904 108.977 73.16ZM104.945 69.928C103.521 69.912 103.137 71.464 103.137 73.176C103.137 74.888 103.521 76.392 104.945 76.392C106.353 76.392 106.753 74.888 106.753 73.176C106.753 71.48 106.353 69.944 104.945 69.928ZM118.321 73.16C118.321 75.64 116.705 77.112 114.289 77.16C111.873 77.128 110.257 75.656 110.257 73.192C110.257 70.792 111.905 69.176 114.289 69.176C116.801 69.176 118.305 70.904 118.321 73.16ZM114.289 69.928C112.865 69.912 112.481 71.464 112.481 73.176C112.481 74.888 112.865 76.392 114.289 76.392C115.697 76.392 116.097 74.888 116.097 73.176C116.097 71.48 115.697 69.944 114.289 69.928ZM119.281 77L120.449 75.864V67.608L119.297 67.048L122.369 65L122.353 75.88L123.601 77H119.281Z" fill="black"/>
<path d="M243.373 192.256C243.389 195.984 241.133 198.304 237.613 198.368C234.109 198.32 231.853 196.016 231.853 192.288C231.853 188.672 234.157 186.176 237.613 186.176C241.261 186.176 243.357 188.832 243.373 192.256ZM237.613 187.12C235.245 187.104 234.365 189.68 234.365 192.272C234.365 194.88 235.229 197.424 237.613 197.424C239.981 197.424 240.861 194.864 240.861 192.272C240.861 189.696 239.981 187.136 237.613 187.12ZM249.462 198L250.614 196.88L250.63 193.44C250.63 192.592 250.582 192.224 250.342 191.856C250.118 191.504 249.718 191.328 249.142 191.328C247.974 191.328 247.638 192.224 247.558 192.672V196.88L248.806 198H244.486L245.638 196.88V192.432L244.486 191.728L245.638 190.96V190.944L247.078 189.984L247.446 191.552C247.958 190.688 248.71 190.176 249.958 190.176C251.478 190.176 252.55 191.136 252.55 192.96L252.534 196.88L253.782 198H249.462ZM254.25 198L255.418 196.864V188.608L254.266 188.048L257.338 186L257.322 196.88L258.57 198H254.25ZM259.236 198L260.388 196.88V192.32L259.236 191.728L260.388 191.024L261.332 190.448L262.308 189.856V196.88L263.54 198H259.236ZM260.228 187.76C260.228 187.104 260.772 186.544 261.444 186.544C262.1 186.544 262.66 187.104 262.66 187.76C262.66 188.432 262.1 188.976 261.444 188.976C260.772 188.976 260.228 188.432 260.228 187.76ZM269.087 198L270.239 196.88L270.255 193.44C270.255 192.592 270.207 192.224 269.967 191.856C269.743 191.504 269.343 191.328 268.767 191.328C267.599 191.328 267.263 192.224 267.183 192.672V196.88L268.431 198H264.111L265.263 196.88V192.432L264.111 191.728L265.263 190.96V190.944L266.703 189.984L267.071 191.552C267.583 190.688 268.335 190.176 269.583 190.176C271.103 190.176 272.175 191.136 272.175 192.96L272.159 196.88L273.407 198H269.087ZM277.955 198.16C275.475 198.16 274.195 196.288 274.195 194.32C274.195 192.08 275.715 190.176 278.051 190.176C279.379 190.176 281.219 190.832 281.379 193.056H281.395V193.2V193.376V193.856H276.003C276.067 195.472 277.075 196.544 278.659 196.544C279.779 196.544 280.707 196.064 281.331 195.056C281.331 196.864 279.635 198.16 277.955 198.16ZM277.811 190.928C276.947 190.928 276.019 191.696 276.003 193.056H279.347C279.347 191.792 278.819 190.928 277.811 190.928ZM237.052 209.28V214.48L235.372 213.168C234.492 214 233.484 214.288 232.428 214.288C229.116 214.288 226.988 211.84 226.988 208.608C226.988 204.576 229.324 202.256 232.828 202.256C233.628 202.256 234.652 202.624 235.452 203.36L237.052 202.112V207.312C235.644 205.136 234.812 203.36 232.748 203.36C230.828 203.36 229.5 205.36 229.5 208.112C229.5 210.864 230.492 213.232 232.78 213.232C235.036 213.232 236.22 210.48 237.052 209.28ZM246.876 210.16C246.876 212.64 245.26 214.112 242.844 214.16C240.428 214.128 238.812 212.656 238.812 210.192C238.812 207.792 240.46 206.176 242.844 206.176C245.356 206.176 246.86 207.904 246.876 210.16ZM242.844 206.928C241.42 206.912 241.036 208.464 241.036 210.176C241.036 211.888 241.42 213.392 242.844 213.392C244.252 213.392 244.652 211.888 244.652 210.176C244.652 208.48 244.252 206.944 242.844 206.928ZM255.596 205.856V212.272L256.748 213.072L254.156 214.368L253.788 212.832C253.292 213.68 252.588 214.176 251.356 214.176C249.836 214.176 248.796 213.216 248.796 211.392V208.304L247.66 207.728L249.756 206.448V206.464L250.732 205.856L250.716 210.816C250.732 212.16 251.02 212.992 252.204 212.992C253.276 212.992 253.58 212.24 253.676 211.792V208.32L252.524 207.728L254.62 206.448V206.464L255.596 205.856ZM257.447 214L258.599 212.88V208.432L257.447 207.728L258.599 206.96V206.944L260.039 205.984L260.471 208.016C260.839 206.96 261.591 206.176 262.519 206.176C263.063 206.176 263.719 206.576 263.719 207.424C263.719 208.176 263.175 208.72 262.599 208.72C261.991 208.72 261.463 208.304 261.399 207.584C260.807 208.192 260.583 208.88 260.519 209.84V212.88L261.766 214H257.447ZM267.207 206.096C267.751 206.096 268.359 206.304 268.775 206.544L270.023 205.856L270.039 209.136C269.687 208.496 269.287 207.936 268.695 207.472C268.327 207.152 267.751 206.96 267.319 206.96C266.551 206.96 265.991 207.296 265.991 207.92C265.991 208.416 266.615 208.72 267.575 208.96C269.239 209.376 270.311 209.872 270.311 211.696C270.311 212.768 269.463 214.16 267.639 214.16C266.807 214.16 266.215 213.952 265.767 213.696L264.567 214.288L264.551 210.72C265.063 211.504 265.495 212.32 266.215 212.88C266.663 213.216 267.095 213.28 267.671 213.28C268.199 213.28 268.871 212.96 268.871 212.304C268.871 211.392 267.767 211.2 267.015 211.04C265.511 210.72 264.583 210.08 264.583 208.512C264.583 206.944 265.799 206.096 267.207 206.096ZM275.509 214.16C273.029 214.16 271.749 212.288 271.749 210.32C271.749 208.08 273.269 206.176 275.605 206.176C276.933 206.176 278.773 206.832 278.933 209.056H278.949V209.2V209.376V209.856H273.557C273.621 211.472 274.629 212.544 276.213 212.544C277.333 212.544 278.261 212.064 278.885 211.056C278.885 212.864 277.189 214.16 275.509 214.16ZM275.365 206.928C274.501 206.928 273.573 207.696 273.557 209.056H276.901C276.901 207.792 276.373 206.928 275.365 206.928ZM282.91 206.096C283.454 206.096 284.062 206.304 284.478 206.544L285.726 205.856L285.742 209.136C285.39 208.496 284.99 207.936 284.398 207.472C284.03 207.152 283.454 206.96 283.022 206.96C282.254 206.96 281.694 207.296 281.694 207.92C281.694 208.416 282.318 208.72 283.278 208.96C284.942 209.376 286.014 209.872 286.014 211.696C286.014 212.768 285.166 214.16 283.342 214.16C282.51 214.16 281.918 213.952 281.47 213.696L280.27 214.288L280.254 210.72C280.766 211.504 281.198 212.32 281.918 212.88C282.366 213.216 282.798 213.28 283.374 213.28C283.902 213.28 284.574 212.96 284.574 212.304C284.574 211.392 283.47 211.2 282.718 211.04C281.214 210.72 280.286 210.08 280.286 208.512C280.286 206.944 281.502 206.096 282.91 206.096Z" fill="black"/>
<path d="M105.764 603.272C106.516 603.272 107.412 603.624 108.036 604.04L109.3 603.144L109.268 608.6C107.892 605.4 107.3 604.136 105.412 604.136C104.452 604.136 103.62 604.92 103.62 605.848C103.62 607.208 104.74 607.496 106.788 608.376C108.036 609 109.444 609.864 109.444 611.912C109.444 613.672 108.084 615.096 105.716 615.096C104.58 615.096 103.7 614.76 103.06 614.296L101.796 615.176L101.844 609.752C102.948 612.536 104.02 614.2 105.556 614.2C106.66 614.2 107.508 613.672 107.508 612.44C107.508 610.952 105.54 610.376 104.372 609.864C103.668 609.528 101.764 608.552 101.764 606.552C101.764 604.248 103.604 603.272 105.764 603.272ZM124.111 607.336L122.495 608.632L120.511 613.496L119.599 615.704L117.055 609.528L115.439 613.464L114.511 615.704L111.567 608.568L110.095 607.336H114.495L113.487 608.232L115.039 612.408L116.591 608.424L115.663 607.336H119.567L118.559 608.232L120.111 612.424L121.663 608.424L120.735 607.336H124.111ZM123.868 615L125.02 613.88V609.32L123.868 608.728L125.02 608.024L125.964 607.448L126.94 606.856V613.88L128.172 615H123.868ZM124.86 604.76C124.86 604.104 125.404 603.544 126.076 603.544C126.732 603.544 127.292 604.104 127.292 604.76C127.292 605.432 126.732 605.976 126.076 605.976C125.404 605.976 124.86 605.432 124.86 604.76ZM133.015 613.896C133.639 613.896 134.295 613.56 134.839 612.856C134.775 614.44 133.495 615.16 132.263 615.16C130.471 615.16 129.607 614.04 129.607 612.216L129.623 608.36H128.503V607.336H129.303L130.887 604.28H131.511V607.336H134.199V608.36H131.543L131.527 611.944C131.527 613 131.623 613.896 133.015 613.896ZM139.058 615.16C136.754 615.16 135.234 613.544 135.234 611.416C135.234 608.856 136.978 607.176 139.41 607.176C140.914 607.176 142.114 608.12 142.114 609.416C142.114 610.056 141.698 610.648 140.962 610.648C140.37 610.648 139.826 610.28 139.826 609.48C139.826 608.84 140.194 607.928 139.234 607.928C138.034 607.928 137.042 608.984 137.042 610.52C137.042 612.472 138.162 613.544 139.714 613.544C140.706 613.544 141.826 613.096 142.354 612.04C142.354 613.848 140.658 615.16 139.058 615.16ZM147.724 608.328C146.588 608.328 146.236 609.192 146.14 609.64V613.88L147.388 615H143.068L144.236 613.864V605.608L143.084 605.048L146.156 603L146.14 608.36C146.652 607.608 147.388 607.176 148.54 607.176C150.06 607.176 151.132 608.136 151.132 609.96L151.116 613.88L152.364 615H148.044L149.196 613.88L149.212 610.44C149.212 609.592 149.164 609.224 148.924 608.856C148.7 608.504 148.3 608.328 147.724 608.328Z" fill="black"/>
<path d="M168.677 3.82603C121.979 122.417 123.106 189.062 168.677 307.698C228.54 417.7 235.124 483.071 168.677 611.569C145.556 681.722 136.309 733.553 140.54 788.69" stroke="url(#paint0_linear_610_845)" stroke-width="3"/>
<path d="M169.386 0.999998C223.432 132.674 218.455 198.007 169.386 304.859C130.627 423.643 129.984 489.901 169.386 608.719C208.538 683.968 222.49 737.567 215.232 791.16" stroke="url(#paint1_linear_610_845)" stroke-width="3"/>
<ellipse cx="7.95074" cy="8" rx="7.95074" ry="8" transform="matrix(0 1 1 0 140.075 56.7853)" fill="black"/>
<ellipse cx="7.95074" cy="8" rx="7.95074" ry="8" transform="matrix(0 1 1 0 161.075 603.203)" fill="black"/>
<ellipse cx="7.95074" cy="8" rx="7.95074" ry="8" transform="matrix(0 1 1 0 207.075 784)" fill="black"/>
<ellipse cx="7.95074" cy="8" rx="7.95074" ry="8" transform="matrix(0 1 1 0 142.075 363.955)" fill="black"/>
<ellipse cx="7.95074" cy="8" rx="7.95074" ry="8" transform="matrix(0 1 1 0 197.075 190.243)" fill="black"/>
<ellipse cx="7.95074" cy="8" rx="7.95074" ry="8" transform="matrix(0 1 1 0 206.075 475.521)" fill="black"/>
<defs>
<linearGradient id="paint0_linear_610_845" x1="134.531" y1="3.82603" x2="124.934" y2="1219.28" gradientUnits="userSpaceOnUse">
<stop/>
<stop offset="0.430045" stop-opacity="0.19"/>
<stop offset="0.630208" stop-opacity="0"/>
</linearGradient>
<linearGradient id="paint1_linear_610_845" x1="134.572" y1="1216.44" x2="134.572" y2="1" gradientUnits="userSpaceOnUse">
<stop offset="0.28125"/>
<stop offset="0.921875" stop-color="#040404" stop-opacity="0.03"/>
</linearGradient>
</defs>
</svg>
