<svg width="409" height="1292" viewBox="0 0 409 1292" fill="none" xmlns="http://www.w3.org/2000/svg">
<rect width="409" height="1291" transform="translate(0 1)" fill="white"/>
<path d="M85.032 579.512L83.304 580.856V590.008H87.208L89.816 586.472L89.432 591H79.4L81.064 589.72V580.808L79.4 579.512H85.032ZM94.9469 591.16C92.4669 591.16 91.1869 589.288 91.1869 587.32C91.1869 585.08 92.7069 583.176 95.0429 583.176C96.3709 583.176 98.2109 583.832 98.3709 586.056H98.3869V586.2V586.376V586.856H92.9949C93.0589 588.472 94.0669 589.544 95.6509 589.544C96.7709 589.544 97.6989 589.064 98.3229 588.056C98.3229 589.864 96.6269 591.16 94.9469 591.16ZM94.8029 583.928C93.9389 583.928 93.0109 584.696 92.9949 586.056H96.3389C96.3389 584.792 95.8109 583.928 94.8029 583.928ZM121.8 579.464L120.104 580.92L116.504 590.664L116.072 591.832L112.632 582.904L110.488 588.92L109.88 590.664L109.432 591.832L105.016 580.744L103.544 579.464H108.648L107.384 580.552L109.976 587.544L112.072 581.464L111.704 580.52L110.488 579.464H115.752L114.2 580.728L116.648 587.624L119.16 580.536L117.928 579.464H121.8ZM126.875 585.544H126.891C126.827 584.456 126.123 583.864 125.323 583.864C124.843 583.864 124.091 583.96 123.867 584.28C124.555 584.552 124.731 584.952 124.731 585.496C124.731 586.12 124.203 586.616 123.627 586.616C122.923 586.616 122.539 586.056 122.539 585.32C122.539 584.376 123.947 583.096 125.595 583.096H125.851C127.243 583.096 128.715 583.736 128.715 585.88C128.715 586.536 128.699 589 128.699 589.736L129.915 591H127.291L126.891 589.768C126.395 590.632 125.291 591.224 124.235 591.224C122.747 591.224 122.283 590.12 122.283 589.4C122.283 588.28 123.227 587.624 124.219 587.384C125.371 587.112 126.891 586.936 126.875 585.544ZM125.003 590.024C125.579 590.024 126.491 589.672 126.843 588.824L126.875 586.888C126.491 587.384 125.899 587.688 125.371 587.896C124.507 588.28 124.187 588.648 124.187 589.256C124.187 589.736 124.587 590.024 125.003 590.024ZM130.911 585.864C130.911 584.232 132.463 583.176 134.511 583.176H134.623C134.255 582.52 134.143 581.64 134.143 581.208C134.143 580.776 134.255 580.408 134.479 580.152C134.687 579.864 135.039 579.672 135.439 579.672C136.111 579.672 136.639 580.2 136.639 580.872C136.639 581.544 136.111 582.072 135.439 582.072C135.199 582.072 134.975 582.008 134.799 581.896C134.815 582.168 134.879 582.44 134.975 582.712C135.039 582.904 135.119 583.08 135.215 583.224C136.831 583.448 137.807 584.44 137.807 585.864C137.807 587.416 136.559 588.44 134.703 588.552L133.791 589.112C134.991 589.576 136.207 590.04 136.959 590.408C137.871 590.872 138.127 591.432 138.127 592.104C138.127 593.464 136.399 594.744 134.015 594.744C132.079 594.744 130.383 594.072 130.383 592.776C130.383 591.544 132.111 590.968 133.327 590.776C132.607 590.488 131.935 590.232 131.727 590.136V589.624L132.767 589.144L133.743 588.52C132.047 588.344 130.911 587.352 130.911 585.864ZM132.143 592.52C132.111 593.384 133.135 594.072 134.286 594.072C135.519 594.072 136.415 593.544 136.415 592.824C136.415 592.152 135.679 591.768 135.103 591.496L134.127 591.08C133.055 591.208 132.159 591.992 132.143 592.52ZM133.007 585.864C133.007 587.112 133.407 587.864 134.367 587.864C135.327 587.864 135.727 587.112 135.727 585.864C135.727 584.6 135.327 583.848 134.367 583.848C133.407 583.848 133.007 584.6 133.007 585.864ZM147.235 587.16C147.235 589.64 145.619 591.112 143.203 591.16C140.787 591.128 139.171 589.656 139.171 587.192C139.171 584.792 140.819 583.176 143.203 583.176C145.715 583.176 147.219 584.904 147.235 587.16ZM143.203 583.928C141.779 583.912 141.395 585.464 141.395 587.176C141.395 588.888 141.779 590.392 143.203 590.392C144.611 590.392 145.011 588.888 145.011 587.176C145.011 585.48 144.611 583.944 143.203 583.928ZM153.235 591L154.387 589.88L154.403 586.44C154.403 585.592 154.355 585.224 154.115 584.856C153.891 584.504 153.491 584.328 152.915 584.328C151.747 584.328 151.411 585.224 151.331 585.672V589.88L152.579 591H148.259L149.411 589.88V585.432L148.259 584.728L149.411 583.96V583.944L150.851 582.984L151.219 584.552C151.731 583.688 152.483 583.176 153.731 583.176C155.251 583.176 156.323 584.136 156.323 585.96L156.307 589.88L157.555 591H153.235ZM79.4 607L81.064 605.72V596.808L79.4 595.512H82.312C82.312 595.512 84.168 595.496 85.864 595.496C87.944 595.496 89.176 596.68 89.176 598.184C89.176 599.4 88.632 600.408 86.568 601.048C88.392 601.192 89.816 602.104 89.816 604.024C89.816 605.56 88.6 607 86.008 607H79.4ZM84.136 601.528H83.304V606.184H84.808C86.168 606.152 87.432 605.48 87.432 603.944C87.432 602.392 86.232 601.528 84.136 601.528ZM83.496 596.328H83.304V600.712C85.032 600.712 86.792 600.616 86.792 598.584C86.792 597.704 86.456 596.936 85.832 596.632C85.24 596.312 84.488 596.328 83.496 596.328ZM99.3134 603.16C99.3134 605.64 97.6974 607.112 95.2814 607.16C92.8654 607.128 91.2494 605.656 91.2494 603.192C91.2494 600.792 92.8974 599.176 95.2814 599.176C97.7934 599.176 99.2974 600.904 99.3134 603.16ZM95.2814 599.928C93.8574 599.912 93.4734 601.464 93.4734 603.176C93.4734 604.888 93.8574 606.392 95.2814 606.392C96.6894 606.392 97.0894 604.888 97.0894 603.176C97.0894 601.48 96.6894 599.944 95.2814 599.928ZM108.657 603.16C108.657 605.64 107.041 607.112 104.625 607.16C102.209 607.128 100.593 605.656 100.593 603.192C100.593 600.792 102.241 599.176 104.625 599.176C107.137 599.176 108.641 600.904 108.657 603.16ZM104.625 599.928C103.201 599.912 102.817 601.464 102.817 603.176C102.817 604.888 103.201 606.392 104.625 606.392C106.033 606.392 106.433 604.888 106.433 603.176C106.433 601.48 106.033 599.944 104.625 599.928ZM113.953 605.896C114.577 605.896 115.233 605.56 115.777 604.856C115.713 606.44 114.433 607.16 113.201 607.16C111.409 607.16 110.545 606.04 110.545 604.216L110.561 600.36H109.441V599.336H110.241L111.825 596.28H112.449V599.336H115.137V600.36H112.481L112.465 603.944C112.465 605 112.561 605.896 113.953 605.896ZM119.995 607.16C117.691 607.16 116.171 605.544 116.171 603.416C116.171 600.856 117.915 599.176 120.347 599.176C121.851 599.176 123.051 600.12 123.051 601.416C123.051 602.056 122.635 602.648 121.899 602.648C121.307 602.648 120.763 602.28 120.763 601.48C120.763 600.84 121.131 599.928 120.171 599.928C118.971 599.928 117.979 600.984 117.979 602.52C117.979 604.472 119.099 605.544 120.651 605.544C121.643 605.544 122.763 605.096 123.291 604.04C123.291 605.848 121.595 607.16 119.995 607.16ZM129.078 601.544H129.094C129.03 600.456 128.326 599.864 127.526 599.864C127.046 599.864 126.294 599.96 126.07 600.28C126.758 600.552 126.934 600.952 126.934 601.496C126.934 602.12 126.406 602.616 125.83 602.616C125.126 602.616 124.742 602.056 124.742 601.32C124.742 600.376 126.15 599.096 127.798 599.096H128.054C129.446 599.096 130.918 599.736 130.918 601.88C130.918 602.536 130.902 605 130.902 605.736L132.118 607H129.494L129.094 605.768C128.598 606.632 127.494 607.224 126.438 607.224C124.95 607.224 124.486 606.12 124.486 605.4C124.486 604.28 125.43 603.624 126.422 603.384C127.574 603.112 129.094 602.936 129.078 601.544ZM127.206 606.024C127.782 606.024 128.694 605.672 129.046 604.824L129.078 602.888C128.694 603.384 128.102 603.688 127.574 603.896C126.71 604.28 126.39 604.648 126.39 605.256C126.39 605.736 126.79 606.024 127.206 606.024ZM137.306 607L138.458 605.88L138.474 602.536C138.458 601.192 138.17 600.36 137.114 600.36C136.074 600.36 135.802 601.208 135.722 601.64V605.88L136.97 607H132.65L133.802 605.88V601.432L132.65 600.728L133.802 599.96V599.944L135.242 598.984L135.594 600.52C136.074 599.672 136.794 599.176 137.962 599.176C139.018 599.176 139.834 599.704 140.202 600.728C140.682 599.752 141.402 599.176 142.666 599.176C144.09 599.176 145.098 600.136 145.098 601.96L145.082 605.88L146.33 607H142.01L143.162 605.88L143.178 602.536C143.162 601.192 142.874 600.36 141.818 600.36C140.442 600.36 140.394 601.896 140.394 601.896V601.96L140.378 605.88L141.626 607H137.306ZM152.261 599.208C153.973 599.208 155.749 600.424 155.749 603.08C155.749 605.224 153.941 607.208 151.317 607.208C150.869 607.208 150.357 607.128 149.893 606.952V609.464L151.141 610.6H146.821L147.973 609.464V601.432L146.821 600.728L147.973 599.96V599.944L149.413 598.984L149.797 600.408C150.341 599.576 151.365 599.208 152.261 599.208ZM151.189 600.632C150.869 600.632 150.341 600.664 149.893 601.016V604.616C150.005 605.848 150.629 606.408 151.653 606.408C152.949 606.408 153.765 605.272 153.765 603.816C153.765 601.656 152.613 600.632 151.189 600.632Z" fill="black"/>
<path d="M258.765 1272L260.429 1270.72V1261.81L258.765 1260.51H261.677C261.677 1260.51 263.453 1260.5 264.909 1260.5C267.277 1260.5 268.701 1262 268.701 1263.66C268.701 1265.58 267.197 1267.31 264.573 1267.31C263.485 1267.31 262.925 1267.28 262.669 1267.25V1270.66L264.413 1272H258.765ZM263.021 1261.33H262.669V1266.51C264.461 1266.51 266.317 1266.46 266.317 1263.9C266.317 1262.86 265.981 1262 265.357 1261.63C264.765 1261.31 264.013 1261.33 263.021 1261.33ZM269.202 1272L270.354 1270.88V1266.43L269.202 1265.73L270.354 1264.96V1264.94L271.794 1263.98L272.226 1266.02C272.594 1264.96 273.346 1264.18 274.274 1264.18C274.818 1264.18 275.474 1264.58 275.474 1265.42C275.474 1266.18 274.93 1266.72 274.354 1266.72C273.746 1266.72 273.218 1266.3 273.154 1265.58C272.562 1266.19 272.338 1266.88 272.274 1267.84V1270.88L273.522 1272H269.202ZM284.179 1268.16C284.179 1270.64 282.563 1272.11 280.147 1272.16C277.731 1272.13 276.115 1270.66 276.115 1268.19C276.115 1265.79 277.763 1264.18 280.147 1264.18C282.659 1264.18 284.163 1265.9 284.179 1268.16ZM280.147 1264.93C278.723 1264.91 278.339 1266.46 278.339 1268.18C278.339 1269.89 278.723 1271.39 280.147 1271.39C281.555 1271.39 281.955 1269.89 281.955 1268.18C281.955 1266.48 281.555 1264.94 280.147 1264.93ZM288.962 1272.21C287.25 1272.21 285.474 1270.99 285.474 1268.34C285.474 1266.19 287.282 1264.21 289.906 1264.21C290.354 1264.21 290.85 1264.29 291.33 1264.48V1262.61L290.178 1262.05L292.674 1260.38V1260.4L293.25 1260V1270.27L294.402 1271.07L291.81 1272.37L291.426 1270.99C290.882 1271.84 289.858 1272.21 288.962 1272.21ZM290.034 1270.78C290.354 1270.78 290.882 1270.75 291.33 1270.42V1266.8C291.218 1265.58 290.594 1265.01 289.57 1265.01C288.274 1265.01 287.458 1266.14 287.458 1267.6C287.458 1269.76 288.61 1270.78 290.034 1270.78ZM302.805 1263.86V1270.27L303.957 1271.07L301.365 1272.37L300.997 1270.83C300.501 1271.68 299.797 1272.18 298.565 1272.18C297.045 1272.18 296.005 1271.22 296.005 1269.39V1266.3L294.869 1265.73L296.965 1264.45V1264.46L297.941 1263.86L297.925 1268.82C297.941 1270.16 298.229 1270.99 299.413 1270.99C300.485 1270.99 300.789 1270.24 300.885 1269.79V1266.32L299.733 1265.73L301.829 1264.45V1264.46L302.805 1263.86ZM308.735 1272.16C306.431 1272.16 304.911 1270.54 304.911 1268.42C304.911 1265.86 306.655 1264.18 309.087 1264.18C310.591 1264.18 311.791 1265.12 311.791 1266.42C311.791 1267.06 311.375 1267.65 310.639 1267.65C310.047 1267.65 309.503 1267.28 309.503 1266.48C309.503 1265.84 309.871 1264.93 308.911 1264.93C307.711 1264.93 306.719 1265.98 306.719 1267.52C306.719 1269.47 307.839 1270.54 309.391 1270.54C310.383 1270.54 311.503 1270.1 312.031 1269.04C312.031 1270.85 310.335 1272.16 308.735 1272.16ZM317.162 1270.9C317.786 1270.9 318.442 1270.56 318.986 1269.86C318.922 1271.44 317.642 1272.16 316.41 1272.16C314.618 1272.16 313.754 1271.04 313.754 1269.22L313.77 1265.36H312.65V1264.34H313.45L315.034 1261.28H315.658V1264.34H318.346V1265.36H315.69L315.674 1268.94C315.674 1270 315.77 1270.9 317.162 1270.9ZM323.937 1272L325.601 1270.72V1261.81L323.937 1260.51H329.393C332.577 1260.51 335.633 1262.21 335.633 1266.29C335.633 1269.47 333.553 1272.03 329.265 1272.03C326.529 1272.03 326.481 1272 326.481 1272H323.937ZM328.929 1261.41H327.841V1271.12H329.249C331.873 1271.12 333.073 1269.28 333.073 1266.45C333.073 1263.6 331.793 1261.41 328.929 1261.41ZM340.828 1272.16C338.348 1272.16 337.068 1270.29 337.068 1268.32C337.068 1266.08 338.588 1264.18 340.924 1264.18C342.252 1264.18 344.092 1264.83 344.252 1267.06H344.268V1267.2V1267.38V1267.86H338.876C338.94 1269.47 339.948 1270.54 341.532 1270.54C342.652 1270.54 343.58 1270.06 344.204 1269.06C344.204 1270.86 342.508 1272.16 340.828 1272.16ZM340.684 1264.93C339.82 1264.93 338.892 1265.7 338.876 1267.06H342.22C342.22 1265.79 341.692 1264.93 340.684 1264.93ZM348.228 1264.1C348.772 1264.1 349.38 1264.3 349.796 1264.54L351.044 1263.86L351.06 1267.14C350.708 1266.5 350.308 1265.94 349.716 1265.47C349.348 1265.15 348.772 1264.96 348.34 1264.96C347.572 1264.96 347.012 1265.3 347.012 1265.92C347.012 1266.42 347.636 1266.72 348.596 1266.96C350.26 1267.38 351.332 1267.87 351.332 1269.7C351.332 1270.77 350.484 1272.16 348.66 1272.16C347.828 1272.16 347.236 1271.95 346.788 1271.7L345.588 1272.29L345.572 1268.72C346.084 1269.5 346.516 1270.32 347.236 1270.88C347.684 1271.22 348.116 1271.28 348.692 1271.28C349.22 1271.28 349.892 1270.96 349.892 1270.3C349.892 1269.39 348.788 1269.2 348.036 1269.04C346.532 1268.72 345.604 1268.08 345.604 1266.51C345.604 1264.94 346.82 1264.1 348.228 1264.1ZM352.515 1272L353.667 1270.88V1266.32L352.515 1265.73L353.667 1265.02L354.611 1264.45L355.587 1263.86V1270.88L356.819 1272H352.515ZM353.507 1261.76C353.507 1261.1 354.051 1260.54 354.723 1260.54C355.379 1260.54 355.939 1261.1 355.939 1261.76C355.939 1262.43 355.379 1262.98 354.723 1262.98C354.051 1262.98 353.507 1262.43 353.507 1261.76ZM357.854 1266.86C357.854 1265.23 359.406 1264.18 361.454 1264.18H361.566C361.198 1263.52 361.086 1262.64 361.086 1262.21C361.086 1261.78 361.198 1261.41 361.422 1261.15C361.63 1260.86 361.982 1260.67 362.382 1260.67C363.054 1260.67 363.582 1261.2 363.582 1261.87C363.582 1262.54 363.054 1263.07 362.382 1263.07C362.142 1263.07 361.918 1263.01 361.742 1262.9C361.758 1263.17 361.822 1263.44 361.918 1263.71C361.982 1263.9 362.062 1264.08 362.158 1264.22C363.774 1264.45 364.75 1265.44 364.75 1266.86C364.75 1268.42 363.502 1269.44 361.646 1269.55L360.734 1270.11C361.934 1270.58 363.15 1271.04 363.902 1271.41C364.814 1271.87 365.07 1272.43 365.07 1273.1C365.07 1274.46 363.342 1275.74 360.958 1275.74C359.022 1275.74 357.326 1275.07 357.326 1273.78C357.326 1272.54 359.054 1271.97 360.27 1271.78C359.55 1271.49 358.878 1271.23 358.67 1271.14V1270.62L359.71 1270.14L360.686 1269.52C358.99 1269.34 357.854 1268.35 357.854 1266.86ZM359.086 1273.52C359.054 1274.38 360.078 1275.07 361.23 1275.07C362.462 1275.07 363.358 1274.54 363.358 1273.82C363.358 1273.15 362.622 1272.77 362.046 1272.5L361.07 1272.08C359.998 1272.21 359.102 1272.99 359.086 1273.52ZM359.95 1266.86C359.95 1268.11 360.35 1268.86 361.31 1268.86C362.27 1268.86 362.67 1268.11 362.67 1266.86C362.67 1265.6 362.27 1264.85 361.31 1264.85C360.35 1264.85 359.95 1265.6 359.95 1266.86ZM370.835 1272L371.987 1270.88L372.003 1267.44C372.003 1266.59 371.955 1266.22 371.715 1265.86C371.491 1265.5 371.091 1265.33 370.515 1265.33C369.347 1265.33 369.011 1266.22 368.931 1266.67V1270.88L370.179 1272H365.859L367.011 1270.88V1266.43L365.859 1265.73L367.011 1264.96V1264.94L368.451 1263.98L368.819 1265.55C369.331 1264.69 370.083 1264.18 371.331 1264.18C372.851 1264.18 373.923 1265.14 373.923 1266.96L373.907 1270.88L375.155 1272H370.835ZM379.703 1272.16C377.223 1272.16 375.943 1270.29 375.943 1268.32C375.943 1266.08 377.463 1264.18 379.799 1264.18C381.127 1264.18 382.967 1264.83 383.127 1267.06H383.143V1267.2V1267.38V1267.86H377.751C377.815 1269.47 378.823 1270.54 380.407 1270.54C381.527 1270.54 382.455 1270.06 383.079 1269.06C383.079 1270.86 381.383 1272.16 379.703 1272.16ZM379.559 1264.93C378.695 1264.93 377.767 1265.7 377.751 1267.06H381.095C381.095 1265.79 380.567 1264.93 379.559 1264.93ZM383.999 1272L385.151 1270.88V1266.43L383.999 1265.73L385.151 1264.96V1264.94L386.591 1263.98L387.023 1266.02C387.391 1264.96 388.143 1264.18 389.071 1264.18C389.615 1264.18 390.271 1264.58 390.271 1265.42C390.271 1266.18 389.727 1266.72 389.151 1266.72C388.543 1266.72 388.015 1266.3 387.951 1265.58C387.359 1266.19 387.135 1266.88 387.071 1267.84V1270.88L388.319 1272H383.999Z" fill="black"/>
<path d="M269.958 765.28V770.48L268.278 769.168C267.398 770 266.39 770.288 265.334 770.288C262.022 770.288 259.894 767.84 259.894 764.608C259.894 760.576 262.23 758.256 265.734 758.256C266.534 758.256 267.558 758.624 268.358 759.36L269.958 758.112V763.312C268.55 761.136 267.718 759.36 265.654 759.36C263.734 759.36 262.406 761.36 262.406 764.112C262.406 766.864 263.398 769.232 265.686 769.232C267.942 769.232 269.126 766.48 269.958 765.28ZM279.782 766.16C279.782 768.64 278.166 770.112 275.75 770.16C273.334 770.128 271.718 768.656 271.718 766.192C271.718 763.792 273.366 762.176 275.75 762.176C278.262 762.176 279.766 763.904 279.782 766.16ZM275.75 762.928C274.326 762.912 273.942 764.464 273.942 766.176C273.942 767.888 274.326 769.392 275.75 769.392C277.158 769.392 277.558 767.888 277.558 766.176C277.558 764.48 277.158 762.944 275.75 762.928ZM285.782 770L286.934 768.88L286.95 765.44C286.95 764.592 286.902 764.224 286.662 763.856C286.438 763.504 286.038 763.328 285.462 763.328C284.294 763.328 283.958 764.224 283.878 764.672V768.88L285.126 770H280.806L281.958 768.88V764.432L280.806 763.728L281.958 762.96V762.944L283.398 761.984L283.766 763.552C284.278 762.688 285.03 762.176 286.278 762.176C287.798 762.176 288.87 763.136 288.87 764.96L288.854 768.88L290.102 770H285.782ZM293.738 762.096C294.282 762.096 294.89 762.304 295.306 762.544L296.554 761.856L296.57 765.136C296.218 764.496 295.818 763.936 295.226 763.472C294.858 763.152 294.282 762.96 293.85 762.96C293.082 762.96 292.522 763.296 292.522 763.92C292.522 764.416 293.146 764.72 294.106 764.96C295.77 765.376 296.842 765.872 296.842 767.696C296.842 768.768 295.994 770.16 294.17 770.16C293.338 770.16 292.746 769.952 292.298 769.696L291.098 770.288L291.082 766.72C291.594 767.504 292.026 768.32 292.746 768.88C293.194 769.216 293.626 769.28 294.202 769.28C294.73 769.28 295.402 768.96 295.402 768.304C295.402 767.392 294.298 767.2 293.546 767.04C292.042 766.72 291.114 766.08 291.114 764.512C291.114 762.944 292.33 762.096 293.738 762.096ZM305.721 761.856V768.272L306.873 769.072L304.281 770.368L303.913 768.832C303.417 769.68 302.713 770.176 301.481 770.176C299.961 770.176 298.921 769.216 298.921 767.392V764.304L297.785 763.728L299.881 762.448V762.464L300.857 761.856L300.841 766.816C300.857 768.16 301.145 768.992 302.329 768.992C303.401 768.992 303.705 768.24 303.801 767.792V764.32L302.649 763.728L304.745 762.448V762.464L305.721 761.856ZM307.508 770L308.676 768.864V760.608L307.524 760.048L310.596 758L310.58 768.88L311.828 770H307.508ZM316.765 768.896C317.389 768.896 318.045 768.56 318.589 767.856C318.525 769.44 317.245 770.16 316.013 770.16C314.221 770.16 313.357 769.04 313.357 767.216L313.373 763.36H312.253V762.336H313.053L314.637 759.28H315.261V762.336H317.949V763.36H315.293L315.277 766.944C315.277 768 315.373 768.896 316.765 768.896ZM323.656 764.544H323.672C323.608 763.456 322.904 762.864 322.104 762.864C321.624 762.864 320.872 762.96 320.648 763.28C321.336 763.552 321.512 763.952 321.512 764.496C321.512 765.12 320.984 765.616 320.408 765.616C319.704 765.616 319.32 765.056 319.32 764.32C319.32 763.376 320.728 762.096 322.376 762.096H322.632C324.024 762.096 325.496 762.736 325.496 764.88C325.496 765.536 325.48 768 325.48 768.736L326.696 770H324.072L323.672 768.768C323.176 769.632 322.072 770.224 321.016 770.224C319.528 770.224 319.064 769.12 319.064 768.4C319.064 767.28 320.008 766.624 321 766.384C322.152 766.112 323.672 765.936 323.656 764.544ZM321.784 769.024C322.36 769.024 323.272 768.672 323.624 767.824L323.656 765.888C323.272 766.384 322.68 766.688 322.152 766.896C321.288 767.28 320.968 767.648 320.968 768.256C320.968 768.736 321.368 769.024 321.784 769.024ZM332.204 770L333.356 768.88L333.372 765.44C333.372 764.592 333.324 764.224 333.084 763.856C332.86 763.504 332.46 763.328 331.884 763.328C330.716 763.328 330.38 764.224 330.3 764.672V768.88L331.548 770H327.228L328.38 768.88V764.432L327.228 763.728L328.38 762.96V762.944L329.82 761.984L330.188 763.552C330.7 762.688 331.452 762.176 332.7 762.176C334.22 762.176 335.292 763.136 335.292 764.96L335.276 768.88L336.524 770H332.204ZM341.328 768.896C341.952 768.896 342.608 768.56 343.152 767.856C343.088 769.44 341.808 770.16 340.576 770.16C338.784 770.16 337.92 769.04 337.92 767.216L337.936 763.36H336.816V762.336H337.616L339.2 759.28H339.824V762.336H342.512V763.36H339.856L339.84 766.944C339.84 768 339.936 768.896 341.328 768.896ZM270.228 786L271.892 784.72V775.808L270.228 774.512H273.14C273.14 774.512 274.916 774.496 276.372 774.496C278.74 774.496 280.164 776 280.164 777.664C280.164 779.584 278.66 781.312 276.036 781.312C274.948 781.312 274.388 781.28 274.132 781.248V784.656L275.876 786H270.228ZM274.484 775.328H274.132V780.512C275.924 780.512 277.78 780.464 277.78 777.904C277.78 776.864 277.444 776 276.82 775.632C276.228 775.312 275.476 775.328 274.484 775.328ZM288.985 782.16C288.985 784.64 287.369 786.112 284.953 786.16C282.537 786.128 280.921 784.656 280.921 782.192C280.921 779.792 282.569 778.176 284.953 778.176C287.465 778.176 288.969 779.904 288.985 782.16ZM284.953 778.928C283.529 778.912 283.145 780.464 283.145 782.176C283.145 783.888 283.529 785.392 284.953 785.392C286.361 785.392 286.761 783.888 286.761 782.176C286.761 780.48 286.361 778.944 284.953 778.928ZM293.113 778.096C293.657 778.096 294.265 778.304 294.681 778.544L295.929 777.856L295.945 781.136C295.593 780.496 295.193 779.936 294.601 779.472C294.233 779.152 293.657 778.96 293.225 778.96C292.457 778.96 291.897 779.296 291.897 779.92C291.897 780.416 292.521 780.72 293.481 780.96C295.145 781.376 296.217 781.872 296.217 783.696C296.217 784.768 295.369 786.16 293.545 786.16C292.713 786.16 292.121 785.952 291.673 785.696L290.473 786.288L290.457 782.72C290.969 783.504 291.401 784.32 292.121 784.88C292.569 785.216 293.001 785.28 293.577 785.28C294.105 785.28 294.777 784.96 294.777 784.304C294.777 783.392 293.673 783.2 292.921 783.04C291.417 782.72 290.489 782.08 290.489 780.512C290.489 778.944 291.705 778.096 293.113 778.096ZM297.4 786L298.552 784.88V780.32L297.4 779.728L298.552 779.024L299.496 778.448L300.472 777.856V784.88L301.704 786H297.4ZM298.392 775.76C298.392 775.104 298.936 774.544 299.608 774.544C300.264 774.544 300.824 775.104 300.824 775.76C300.824 776.432 300.264 776.976 299.608 776.976C298.936 776.976 298.392 776.432 298.392 775.76ZM306.547 784.896C307.171 784.896 307.827 784.56 308.371 783.856C308.307 785.44 307.027 786.16 305.795 786.16C304.003 786.16 303.139 785.04 303.139 783.216L303.155 779.36H302.035V778.336H302.835L304.419 775.28H305.043V778.336H307.731V779.36H305.075L305.059 782.944C305.059 784 305.155 784.896 306.547 784.896ZM308.509 786L309.661 784.88V780.32L308.509 779.728L309.661 779.024L310.605 778.448L311.581 777.856V784.88L312.813 786H308.509ZM309.501 775.76C309.501 775.104 310.045 774.544 310.717 774.544C311.373 774.544 311.933 775.104 311.933 775.76C311.933 776.432 311.373 776.976 310.717 776.976C310.045 776.976 309.501 776.432 309.501 775.76ZM321.704 782.16C321.704 784.64 320.088 786.112 317.672 786.16C315.256 786.128 313.64 784.656 313.64 782.192C313.64 779.792 315.288 778.176 317.672 778.176C320.184 778.176 321.688 779.904 321.704 782.16ZM317.672 778.928C316.248 778.912 315.864 780.464 315.864 782.176C315.864 783.888 316.248 785.392 317.672 785.392C319.08 785.392 319.48 783.888 319.48 782.176C319.48 780.48 319.08 778.944 317.672 778.928ZM327.704 786L328.856 784.88L328.872 781.44C328.872 780.592 328.824 780.224 328.584 779.856C328.36 779.504 327.96 779.328 327.384 779.328C326.216 779.328 325.88 780.224 325.8 780.672V784.88L327.048 786H322.728L323.88 784.88V780.432L322.728 779.728L323.88 778.96V778.944L325.32 777.984L325.688 779.552C326.2 778.688 326.952 778.176 328.2 778.176C329.72 778.176 330.792 779.136 330.792 780.96L330.776 784.88L332.024 786H327.704Z" fill="black"/>
<path d="M36.4469 103L38.1109 101.72V92.808L36.4469 91.512H39.3589C39.3589 91.512 41.2149 91.496 42.9109 91.496C44.9909 91.496 46.2229 92.68 46.2229 94.184C46.2229 95.4 45.6789 96.408 43.6149 97.048C45.4389 97.192 46.8629 98.104 46.8629 100.024C46.8629 101.56 45.6469 103 43.0549 103H36.4469ZM41.1829 97.528H40.3509V102.184H41.8549C43.2149 102.152 44.4789 101.48 44.4789 99.944C44.4789 98.392 43.2789 97.528 41.1829 97.528ZM40.5429 92.328H40.3509V96.712C42.0789 96.712 43.8389 96.616 43.8389 94.584C43.8389 93.704 43.5029 92.936 42.8789 92.632C42.2869 92.312 41.5349 92.328 40.5429 92.328ZM55.7362 94.856V101.272L56.8883 102.072L54.2963 103.368L53.9283 101.832C53.4323 102.68 52.7283 103.176 51.4963 103.176C49.9763 103.176 48.9363 102.216 48.9363 100.392V97.304L47.8003 96.728L49.8963 95.448V95.464L50.8723 94.856L50.8563 99.816C50.8723 101.16 51.1603 101.992 52.3443 101.992C53.4163 101.992 53.7203 101.24 53.8163 100.792V97.32L52.6643 96.728L54.7603 95.448V95.464L55.7362 94.856ZM60.6911 95.096C61.2351 95.096 61.8431 95.304 62.2591 95.544L63.5071 94.856L63.5231 98.136C63.1711 97.496 62.7711 96.936 62.1791 96.472C61.8111 96.152 61.2351 95.96 60.8031 95.96C60.0351 95.96 59.4751 96.296 59.4751 96.92C59.4751 97.416 60.0991 97.72 61.0591 97.96C62.7231 98.376 63.7951 98.872 63.7951 100.696C63.7951 101.768 62.9471 103.16 61.1231 103.16C60.2911 103.16 59.6991 102.952 59.2511 102.696L58.0511 103.288L58.0351 99.72C58.5471 100.504 58.9791 101.32 59.6991 101.88C60.1471 102.216 60.5791 102.28 61.1551 102.28C61.6831 102.28 62.3551 101.96 62.3551 101.304C62.3551 100.392 61.2511 100.2 60.4991 100.04C58.9951 99.72 58.0671 99.08 58.0671 97.512C58.0671 95.944 59.2831 95.096 60.6911 95.096ZM64.9778 103L66.1298 101.88V97.32L64.9778 96.728L66.1298 96.024L67.0738 95.448L68.0498 94.856V101.88L69.2818 103H64.9778ZM65.9698 92.76C65.9698 92.104 66.5138 91.544 67.1858 91.544C67.8418 91.544 68.4018 92.104 68.4018 92.76C68.4018 93.432 67.8418 93.976 67.1858 93.976C66.5138 93.976 65.9698 93.432 65.9698 92.76ZM74.8288 103L75.9808 101.88L75.9968 98.44C75.9968 97.592 75.9488 97.224 75.7088 96.856C75.4848 96.504 75.0848 96.328 74.5088 96.328C73.3408 96.328 73.0048 97.224 72.9248 97.672V101.88L74.1727 103H69.8528L71.0048 101.88V97.432L69.8528 96.728L71.0048 95.96V95.944L72.4448 94.984L72.8128 96.552C73.3248 95.688 74.0768 95.176 75.3248 95.176C76.8448 95.176 77.9167 96.136 77.9167 97.96L77.9008 101.88L79.1488 103H74.8288ZM83.6969 103.16C81.2169 103.16 79.9369 101.288 79.9369 99.32C79.9369 97.08 81.4569 95.176 83.7929 95.176C85.1209 95.176 86.9609 95.832 87.1209 98.056H87.1369V98.2V98.376V98.856H81.7449C81.8089 100.472 82.8169 101.544 84.4009 101.544C85.5209 101.544 86.4489 101.064 87.0729 100.056C87.0729 101.864 85.3769 103.16 83.6969 103.16ZM83.5529 95.928C82.6889 95.928 81.7609 96.696 81.7449 98.056H85.0889C85.0889 96.792 84.5609 95.928 83.5529 95.928ZM91.0974 95.096C91.6414 95.096 92.2494 95.304 92.6654 95.544L93.9134 94.856L93.9294 98.136C93.5774 97.496 93.1774 96.936 92.5854 96.472C92.2174 96.152 91.6414 95.96 91.2094 95.96C90.4414 95.96 89.8814 96.296 89.8814 96.92C89.8814 97.416 90.5054 97.72 91.4654 97.96C93.1294 98.376 94.2014 98.872 94.2014 100.696C94.2014 101.768 93.3534 103.16 91.5294 103.16C90.6974 103.16 90.1054 102.952 89.6574 102.696L88.4574 103.288L88.4414 99.72C88.9534 100.504 89.3854 101.32 90.1054 101.88C90.5534 102.216 90.9854 102.28 91.5614 102.28C92.0894 102.28 92.7614 101.96 92.7614 101.304C92.7614 100.392 91.6574 100.2 90.9054 100.04C89.4014 99.72 88.4734 99.08 88.4734 97.512C88.4734 95.944 89.6894 95.096 91.0974 95.096ZM98.488 95.096C99.032 95.096 99.64 95.304 100.056 95.544L101.304 94.856L101.32 98.136C100.968 97.496 100.568 96.936 99.976 96.472C99.608 96.152 99.032 95.96 98.6 95.96C97.832 95.96 97.272 96.296 97.272 96.92C97.272 97.416 97.896 97.72 98.856 97.96C100.52 98.376 101.592 98.872 101.592 100.696C101.592 101.768 100.744 103.16 98.92 103.16C98.088 103.16 97.496 102.952 97.048 102.696L95.848 103.288L95.832 99.72C96.344 100.504 96.776 101.32 97.496 101.88C97.944 102.216 98.376 102.28 98.952 102.28C99.48 102.28 100.152 101.96 100.152 101.304C100.152 100.392 99.048 100.2 98.296 100.04C96.792 99.72 95.864 99.08 95.864 97.512C95.864 95.944 97.08 95.096 98.488 95.096ZM112.468 91.272C113.22 91.272 114.116 91.624 114.74 92.04L116.003 91.144L115.972 96.6C114.596 93.4 114.004 92.136 112.116 92.136C111.156 92.136 110.324 92.92 110.324 93.848C110.324 95.208 111.444 95.496 113.492 96.376C114.74 97 116.148 97.864 116.148 99.912C116.148 101.672 114.788 103.096 112.42 103.096C111.284 103.096 110.404 102.76 109.764 102.296L108.5 103.176L108.548 97.752C109.652 100.536 110.724 102.2 112.26 102.2C113.364 102.2 114.212 101.672 114.212 100.44C114.212 98.952 112.244 98.376 111.076 97.864C110.372 97.528 108.468 96.552 108.468 94.552C108.468 92.248 110.308 91.272 112.468 91.272ZM121.886 103.16C119.582 103.16 118.062 101.544 118.062 99.416C118.062 96.856 119.806 95.176 122.238 95.176C123.742 95.176 124.942 96.12 124.942 97.416C124.942 98.056 124.526 98.648 123.79 98.648C123.198 98.648 122.654 98.28 122.654 97.48C122.654 96.84 123.022 95.928 122.062 95.928C120.862 95.928 119.87 96.984 119.87 98.52C119.87 100.472 120.99 101.544 122.542 101.544C123.534 101.544 124.654 101.096 125.182 100.04C125.182 101.848 123.486 103.16 121.886 103.16ZM130.552 96.328C129.416 96.328 129.064 97.192 128.968 97.64V101.88L130.216 103H125.896L127.064 101.864V93.608L125.912 93.048L128.984 91L128.968 96.36C129.48 95.608 130.216 95.176 131.368 95.176C132.888 95.176 133.96 96.136 133.96 97.96L133.944 101.88L135.192 103H130.872L132.024 101.88L132.04 98.44C132.04 97.592 131.992 97.224 131.752 96.856C131.528 96.504 131.128 96.328 130.552 96.328ZM144.048 99.16C144.048 101.64 142.432 103.112 140.016 103.16C137.6 103.128 135.984 101.656 135.984 99.192C135.984 96.792 137.632 95.176 140.016 95.176C142.528 95.176 144.032 96.904 144.048 99.16ZM140.016 95.928C138.592 95.912 138.208 97.464 138.208 99.176C138.208 100.888 138.592 102.392 140.016 102.392C141.424 102.392 141.824 100.888 141.824 99.176C141.824 97.48 141.424 95.944 140.016 95.928ZM153.392 99.16C153.392 101.64 151.776 103.112 149.36 103.16C146.944 103.128 145.328 101.656 145.328 99.192C145.328 96.792 146.976 95.176 149.36 95.176C151.872 95.176 153.376 96.904 153.392 99.16ZM149.36 95.928C147.936 95.912 147.552 97.464 147.552 99.176C147.552 100.888 147.936 102.392 149.36 102.392C150.768 102.392 151.168 100.888 151.168 99.176C151.168 97.48 150.768 95.944 149.36 95.928ZM154.351 103L155.519 101.864V93.608L154.367 93.048L157.439 91L157.423 101.88L158.671 103H154.351Z" fill="black"/>
<path d="M260.662 312.256C260.678 315.984 258.422 318.304 254.902 318.368C251.398 318.32 249.142 316.016 249.142 312.288C249.142 308.672 251.446 306.176 254.902 306.176C258.55 306.176 260.646 308.832 260.662 312.256ZM254.902 307.12C252.534 307.104 251.654 309.68 251.654 312.272C251.654 314.88 252.518 317.424 254.902 317.424C257.27 317.424 258.15 314.864 258.15 312.272C258.15 309.696 257.27 307.136 254.902 307.12ZM266.751 318L267.903 316.88L267.919 313.44C267.919 312.592 267.871 312.224 267.631 311.856C267.407 311.504 267.007 311.328 266.431 311.328C265.263 311.328 264.927 312.224 264.847 312.672V316.88L266.095 318H261.775L262.927 316.88V312.432L261.775 311.728L262.927 310.96V310.944L264.367 309.984L264.735 311.552C265.247 310.688 265.999 310.176 267.247 310.176C268.767 310.176 269.839 311.136 269.839 312.96L269.823 316.88L271.071 318H266.751ZM271.539 318L272.707 316.864V308.608L271.555 308.048L274.627 306L274.611 316.88L275.859 318H271.539ZM276.525 318L277.677 316.88V312.32L276.525 311.728L277.677 311.024L278.621 310.448L279.597 309.856V316.88L280.829 318H276.525ZM277.517 307.76C277.517 307.104 278.061 306.544 278.733 306.544C279.389 306.544 279.949 307.104 279.949 307.76C279.949 308.432 279.389 308.976 278.733 308.976C278.061 308.976 277.517 308.432 277.517 307.76ZM286.376 318L287.528 316.88L287.544 313.44C287.544 312.592 287.496 312.224 287.256 311.856C287.032 311.504 286.632 311.328 286.056 311.328C284.888 311.328 284.552 312.224 284.472 312.672V316.88L285.72 318H281.4L282.552 316.88V312.432L281.4 311.728L282.552 310.96V310.944L283.992 309.984L284.36 311.552C284.872 310.688 285.624 310.176 286.872 310.176C288.392 310.176 289.464 311.136 289.464 312.96L289.448 316.88L290.696 318H286.376ZM295.244 318.16C292.764 318.16 291.484 316.288 291.484 314.32C291.484 312.08 293.004 310.176 295.34 310.176C296.668 310.176 298.508 310.832 298.668 313.056H298.684V313.2V313.376V313.856H293.292C293.356 315.472 294.364 316.544 295.948 316.544C297.068 316.544 297.996 316.064 298.62 315.056C298.62 316.864 296.924 318.16 295.244 318.16ZM295.1 310.928C294.236 310.928 293.308 311.696 293.292 313.056H296.636C296.636 311.792 296.108 310.928 295.1 310.928ZM314.817 313.28V318.48L313.137 317.168C312.257 318 311.249 318.288 310.193 318.288C306.881 318.288 304.753 315.84 304.753 312.608C304.753 308.576 307.089 306.256 310.593 306.256C311.393 306.256 312.417 306.624 313.217 307.36L314.817 306.112V311.312C313.409 309.136 312.577 307.36 310.513 307.36C308.593 307.36 307.265 309.36 307.265 312.112C307.265 314.864 308.257 317.232 310.545 317.232C312.801 317.232 313.985 314.48 314.817 313.28ZM324.642 314.16C324.642 316.64 323.026 318.112 320.61 318.16C318.194 318.128 316.578 316.656 316.578 314.192C316.578 311.792 318.226 310.176 320.61 310.176C323.122 310.176 324.626 311.904 324.642 314.16ZM320.61 310.928C319.186 310.912 318.802 312.464 318.802 314.176C318.802 315.888 319.186 317.392 320.61 317.392C322.018 317.392 322.418 315.888 322.418 314.176C322.418 312.48 322.018 310.944 320.61 310.928ZM333.361 309.856V316.272L334.513 317.072L331.921 318.368L331.553 316.832C331.057 317.68 330.353 318.176 329.121 318.176C327.601 318.176 326.561 317.216 326.561 315.392V312.304L325.425 311.728L327.521 310.448V310.464L328.497 309.856L328.481 314.816C328.497 316.16 328.785 316.992 329.969 316.992C331.041 316.992 331.345 316.24 331.441 315.792V312.32L330.289 311.728L332.385 310.448V310.464L333.361 309.856ZM335.212 318L336.364 316.88V312.432L335.212 311.728L336.364 310.96V310.944L337.804 309.984L338.236 312.016C338.604 310.96 339.356 310.176 340.284 310.176C340.828 310.176 341.484 310.576 341.484 311.424C341.484 312.176 340.94 312.72 340.364 312.72C339.756 312.72 339.228 312.304 339.164 311.584C338.572 312.192 338.348 312.88 338.284 313.84V316.88L339.532 318H335.212ZM344.972 310.096C345.516 310.096 346.124 310.304 346.54 310.544L347.788 309.856L347.804 313.136C347.452 312.496 347.052 311.936 346.46 311.472C346.092 311.152 345.516 310.96 345.084 310.96C344.316 310.96 343.756 311.296 343.756 311.92C343.756 312.416 344.38 312.72 345.34 312.96C347.004 313.376 348.076 313.872 348.076 315.696C348.076 316.768 347.228 318.16 345.404 318.16C344.572 318.16 343.98 317.952 343.532 317.696L342.332 318.288L342.316 314.72C342.828 315.504 343.26 316.32 343.98 316.88C344.428 317.216 344.86 317.28 345.436 317.28C345.964 317.28 346.636 316.96 346.636 316.304C346.636 315.392 345.532 315.2 344.78 315.04C343.276 314.72 342.348 314.08 342.348 312.512C342.348 310.944 343.564 310.096 344.972 310.096ZM353.275 318.16C350.795 318.16 349.515 316.288 349.515 314.32C349.515 312.08 351.035 310.176 353.371 310.176C354.699 310.176 356.539 310.832 356.699 313.056H356.715V313.2V313.376V313.856H351.323C351.387 315.472 352.395 316.544 353.979 316.544C355.099 316.544 356.027 316.064 356.651 315.056C356.651 316.864 354.955 318.16 353.275 318.16ZM353.131 310.928C352.267 310.928 351.339 311.696 351.323 313.056H354.667C354.667 311.792 354.139 310.928 353.131 310.928ZM360.676 310.096C361.22 310.096 361.828 310.304 362.244 310.544L363.492 309.856L363.508 313.136C363.156 312.496 362.756 311.936 362.164 311.472C361.796 311.152 361.22 310.96 360.788 310.96C360.02 310.96 359.46 311.296 359.46 311.92C359.46 312.416 360.084 312.72 361.044 312.96C362.708 313.376 363.78 313.872 363.78 315.696C363.78 316.768 362.932 318.16 361.108 318.16C360.276 318.16 359.684 317.952 359.236 317.696L358.036 318.288L358.02 314.72C358.532 315.504 358.964 316.32 359.684 316.88C360.132 317.216 360.564 317.28 361.14 317.28C361.668 317.28 362.34 316.96 362.34 316.304C362.34 315.392 361.236 315.2 360.484 315.04C358.98 314.72 358.052 314.08 358.052 312.512C358.052 310.944 359.268 310.096 360.676 310.096Z" fill="black"/>
<path d="M132.598 972.272C133.35 972.272 134.246 972.624 134.87 973.04L136.134 972.144L136.102 977.6C134.726 974.4 134.134 973.136 132.246 973.136C131.286 973.136 130.454 973.92 130.454 974.848C130.454 976.208 131.574 976.496 133.622 977.376C134.87 978 136.278 978.864 136.278 980.912C136.278 982.672 134.918 984.096 132.55 984.096C131.414 984.096 130.534 983.76 129.894 983.296L128.63 984.176L128.678 978.752C129.782 981.536 130.854 983.2 132.39 983.2C133.494 983.2 134.342 982.672 134.342 981.44C134.342 979.952 132.374 979.376 131.206 978.864C130.502 978.528 128.598 977.552 128.598 975.552C128.598 973.248 130.438 972.272 132.598 972.272ZM150.945 976.336L149.329 977.632L147.345 982.496L146.433 984.704L143.889 978.528L142.273 982.464L141.345 984.704L138.401 977.568L136.929 976.336H141.329L140.321 977.232L141.873 981.408L143.425 977.424L142.497 976.336H146.401L145.393 977.232L146.945 981.424L148.497 977.424L147.569 976.336H150.945ZM150.702 984L151.854 982.88V978.32L150.702 977.728L151.854 977.024L152.798 976.448L153.774 975.856V982.88L155.006 984H150.702ZM151.694 973.76C151.694 973.104 152.238 972.544 152.91 972.544C153.566 972.544 154.126 973.104 154.126 973.76C154.126 974.432 153.566 974.976 152.91 974.976C152.238 974.976 151.694 974.432 151.694 973.76ZM159.849 982.896C160.473 982.896 161.129 982.56 161.673 981.856C161.609 983.44 160.329 984.16 159.097 984.16C157.305 984.16 156.441 983.04 156.441 981.216L156.457 977.36H155.337V976.336H156.137L157.721 973.28H158.345V976.336H161.033V977.36H158.377L158.361 980.944C158.361 982 158.457 982.896 159.849 982.896ZM165.892 984.16C163.588 984.16 162.068 982.544 162.068 980.416C162.068 977.856 163.812 976.176 166.244 976.176C167.748 976.176 168.948 977.12 168.948 978.416C168.948 979.056 168.532 979.648 167.796 979.648C167.204 979.648 166.66 979.28 166.66 978.48C166.66 977.84 167.028 976.928 166.068 976.928C164.868 976.928 163.876 977.984 163.876 979.52C163.876 981.472 164.996 982.544 166.548 982.544C167.54 982.544 168.66 982.096 169.188 981.04C169.188 982.848 167.492 984.16 165.892 984.16ZM174.558 977.328C173.422 977.328 173.07 978.192 172.974 978.64V982.88L174.222 984H169.902L171.07 982.864V974.608L169.918 974.048L172.99 972L172.974 977.36C173.486 976.608 174.222 976.176 175.374 976.176C176.894 976.176 177.966 977.136 177.966 978.96L177.95 982.88L179.198 984H174.878L176.03 982.88L176.046 979.44C176.046 978.592 175.998 978.224 175.758 977.856C175.534 977.504 175.134 977.328 174.558 977.328Z" fill="black"/>
<path d="M196.041 5.5589C149.343 196.864 150.47 304.371 196.041 495.748C255.903 673.199 262.487 778.651 196.041 985.938C172.92 1099.1 163.672 1182.72 167.903 1271.66" stroke="url(#paint0_linear_610_829)" stroke-width="3"/>
<path d="M196.75 0.999951C250.795 213.409 245.819 318.801 196.75 491.17C157.99 682.785 157.348 789.67 196.75 981.339C235.902 1102.73 249.853 1189.19 242.596 1275.64" stroke="url(#paint1_linear_610_829)" stroke-width="3"/>
<circle cx="8" cy="8" r="8" transform="matrix(0 1 1 0 167.439 90.9901)" fill="black"/>
<circle cx="8" cy="8" r="8" transform="matrix(0 1 1 0 188.439 972.442)" fill="black"/>
<circle cx="8" cy="8" r="8" transform="matrix(0 1 1 0 234.438 1260.42)" fill="black"/>
<circle cx="8" cy="8" r="8" transform="matrix(0 1 1 0 169.439 586.5)" fill="black"/>
<circle cx="8" cy="8" r="8" transform="matrix(0 1 1 0 224.439 306.278)" fill="black"/>
<circle cx="8" cy="8" r="8" transform="matrix(0 1 1 0 233.439 766.472)" fill="black"/>
<defs>
<linearGradient id="paint0_linear_610_829" x1="161.895" y1="5.5589" x2="136.922" y2="1966.07" gradientUnits="userSpaceOnUse">
<stop/>
<stop offset="0.430045" stop-opacity="0.19"/>
<stop offset="0.630208" stop-opacity="0"/>
</linearGradient>
<linearGradient id="paint1_linear_610_829" x1="161.935" y1="1961.68" x2="161.935" y2="1" gradientUnits="userSpaceOnUse">
<stop offset="0.28125"/>
<stop offset="0.921875" stop-color="#040404" stop-opacity="0.03"/>
</linearGradient>
</defs>
</svg>
