<svg width="40" height="40" viewBox="0 0 40 40" fill="none" xmlns="http://www.w3.org/2000/svg">
<path d="M12.405 8.91663C13.47 8.91663 14.455 8.99996 15.355 9.24663C16.2567 9.41163 16.995 9.74163 17.65 10.1533C18.3067 10.5666 18.7984 11.1433 19.125 11.885C19.4534 12.6266 19.6184 13.535 19.6184 14.5233C19.6184 15.6783 19.3717 16.6666 18.7984 17.4083C18.3067 18.1516 17.4867 18.81 16.5034 19.305C17.8967 19.7183 18.9617 20.46 19.6184 21.45C20.2734 22.4383 20.6834 23.675 20.6834 25.0766C20.6834 26.2316 20.4367 27.22 20.0267 28.045C19.6184 28.87 18.9617 29.6116 18.2234 30.1066C17.4213 30.6372 16.5347 31.0272 15.6017 31.26C14.6184 31.5083 13.635 31.6733 12.6517 31.6733H1.66669V8.91663H12.405ZM11.7484 18.15C12.65 18.15 13.3884 17.9033 13.9617 17.4916C14.535 17.08 14.7817 16.3366 14.7817 15.43C14.7817 14.935 14.6984 14.4416 14.535 14.1116C14.3717 13.7816 14.125 13.5333 13.7984 13.2866C13.47 13.1216 13.1417 12.9566 12.7317 12.875C12.3217 12.7916 11.9134 12.7916 11.42 12.7916H6.66669V18.1516H11.75L11.7484 18.15ZM11.995 27.88C12.4867 27.88 12.9784 27.7966 13.3884 27.715C13.7984 27.6316 14.2084 27.4683 14.535 27.22C14.869 26.9787 15.1484 26.6698 15.355 26.3133C15.5184 25.9016 15.6834 25.4066 15.6834 24.83C15.6834 23.675 15.355 22.85 14.7 22.2733C14.0434 21.7783 13.1417 21.5316 12.0767 21.5316H6.66669V27.8816L11.995 27.88ZM27.815 27.7966C28.47 28.4566 29.4534 28.7866 30.765 28.7866C31.6667 28.7866 32.4867 28.54 33.1417 28.1283C33.7984 27.6333 34.2084 27.1383 34.3717 26.645H38.3884C37.7317 28.6216 36.7484 30.0233 35.4384 30.9316C34.125 31.755 32.5684 32.25 30.6834 32.25C29.4773 32.2537 28.2814 32.0298 27.1584 31.59C26.1478 31.211 25.2466 30.5881 24.535 29.7766C23.7738 29.0176 23.2112 28.0829 22.8967 27.055C22.4867 25.9833 22.3217 24.83 22.3217 23.51C22.3217 22.2733 22.4867 21.12 22.8967 20.0466C23.2916 19.0139 23.8754 18.0638 24.6184 17.245C25.3669 16.4764 26.2571 15.86 27.24 15.43C28.3345 14.9901 29.5038 14.766 30.6834 14.77C32.0767 14.77 33.3067 15.0183 34.3717 15.595C35.4384 16.1716 36.2567 16.8316 36.9117 17.8216C37.5684 18.7283 38.0617 19.8 38.3884 20.955C38.5517 22.1083 38.6334 23.2633 38.5517 24.5816H26.6667C26.6667 25.9016 27.1584 27.1383 27.815 27.7983V27.7966ZM32.9784 19.14C32.405 18.5633 31.5034 18.2333 30.4367 18.2333C29.7 18.2333 29.125 18.4 28.6334 18.6466C28.1417 18.8933 27.815 19.2233 27.4867 19.5533C27.1844 19.8719 26.9842 20.2735 26.9117 20.7066C26.83 21.12 26.7484 21.45 26.7484 21.7783H34.125C33.9617 20.5416 33.5517 19.7183 32.9784 19.14ZM25.765 10.4833H34.945V12.71H25.7667V10.4833H25.765Z" fill="black"/>
</svg>
