<svg width="88" height="96" viewBox="0 0 88 96" fill="none" xmlns="http://www.w3.org/2000/svg">
<path d="M16 30.5413H40V79.5506H32C26.6061 74.4666 23.6364 71.9245 16 63.3937V30.5413Z" fill="black"/>
<path d="M16 21.1862C16 18.3219 15.9999 16 15.9999 16H66.6666C69.6122 16 72 16 72 16V23.0013H16V21.1862Z" fill="black"/>
<path fill-rule="evenodd" clip-rule="evenodd" d="M56 36.7347H54.1333V73.3571H56C59.6969 70.2299 61.3939 68.9588 65.8667 63.3937V46.6982C62.2424 41.8439 59.6969 39.7256 56 36.7347ZM48 30.5413V79.5506H56C61.8181 74.4666 64.7878 71.9245 72 63.3937V46.6982C65.6363 38.8782 61.3939 34.2179 56 30.5413H48Z" fill="black"/>
</svg>
